<svg width="46" height="45" viewBox="0 0 46 45" fill="none" xmlns="http://www.w3.org/2000/svg">
<path id="Star 1 (Stroke)" fill-rule="evenodd" clip-rule="evenodd" d="M23 2.98026L16.4359 14.2501C16.0826 14.8566 15.4907 15.2867 14.8047 15.4352L2.05805 18.1955L10.7479 27.9209C11.2156 28.4443 11.4417 29.1401 11.3709 29.8384L10.0572 42.8142L21.9919 37.555C22.6342 37.272 23.3658 37.272 24.0081 37.555L35.9428 42.8142L34.629 29.8384C34.5583 29.1401 34.7844 28.4443 35.2521 27.9209L43.9419 18.1955L31.1953 15.4352C30.5093 15.2867 29.9173 14.8566 29.5641 14.2501L23 2.98026ZM23.8641 1.48352C23.4784 0.82125 22.5216 0.821249 22.1359 1.48352L15.1397 13.4952C14.9984 13.7378 14.7617 13.9098 14.4873 13.9692L0.901584 16.9111C0.152532 17.0733 -0.143121 17.9833 0.367533 18.5548L9.62936 28.9203C9.81642 29.1297 9.90686 29.408 9.87858 29.6873L8.47831 43.5172C8.40111 44.2797 9.17514 44.8421 9.87648 44.533L22.5967 38.9276C22.8537 38.8144 23.1463 38.8144 23.4032 38.9276L36.1235 44.533C36.8249 44.8421 37.5989 44.2797 37.5217 43.5172L36.1214 29.6873C36.0931 29.408 36.1836 29.1297 36.3706 28.9203L45.6325 18.5548C46.1431 17.9833 45.8475 17.0733 45.0984 16.9111L31.5127 13.9692C31.2383 13.9098 31.0016 13.7378 30.8603 13.4952L23.8641 1.48352Z" fill="#1B1A1F"/>
</svg>
