<svg width="46" height="46" viewBox="0 0 46 46" fill="none" xmlns="http://www.w3.org/2000/svg">
<g id="Group 13">
<circle id="Ellipse 8" cx="23" cy="23" r="22.25" stroke="#1B1A1F" stroke-width="1.5"/>
<g id="Group 12">
<path id="Subtract" fill-rule="evenodd" clip-rule="evenodd" d="M23.9001 34.2C23.9001 34.6971 23.4971 35.1 23.0001 35.1C22.503 35.1 22.1001 34.6971 22.1001 34.2C22.1001 33.703 22.503 33.3 23.0001 33.3C23.4971 33.3 23.9001 33.703 23.9001 34.2Z" fill="#1B1A1F"/>
<path id="Subtract_2" fill-rule="evenodd" clip-rule="evenodd" d="M23 28.1C22.6072 28.1 22.2647 27.7681 22.2647 27.3303V25.6203C22.2647 24.2124 23.1341 22.9605 24.4088 22.4979C25.5086 22.0996 26.4087 21.3073 27.0316 20.4177C27.6512 19.533 28.0294 18.5049 28.0294 17.5954C28.0294 14.764 25.7876 12.4395 23 12.4395C20.2124 12.4395 17.9706 14.764 17.9706 17.5954C17.9706 18.0332 17.6281 18.3651 17.2353 18.3651C16.8424 18.3651 16.5 18.0332 16.5 17.5954C16.5 13.8917 19.4286 10.9 23 10.9C26.5714 10.9 29.5 13.8917 29.5 17.5954C29.5 20.1969 27.4743 23.015 24.8903 23.9532C24.1906 24.2053 23.7353 24.8812 23.7353 25.6219V27.3303C23.7353 27.7681 23.3928 28.1 23 28.1Z" fill="#1B1A1F"/>
</g>
</g>
</svg>
