<svg width="26" height="25" viewBox="0 0 26 25" fill="none" xmlns="http://www.w3.org/2000/svg">
<g id="facebook-logo (1) 1" clip-path="url(#clip0_1_14)">
<g id="Group">
<path id="Vector" d="M18.9989 0.00520166L15.757 0C12.1148 0 9.76107 2.41487 9.76107 6.15253V8.98925H6.50149C6.21982 8.98925 5.99173 9.2176 5.99173 9.49928V13.6094C5.99173 13.891 6.22008 14.1191 6.50149 14.1191H9.76107V24.4902C9.76107 24.7719 9.98916 25 10.2708 25H14.5237C14.8053 25 15.0334 24.7716 15.0334 24.4902V14.1191H18.8446C19.1263 14.1191 19.3544 13.891 19.3544 13.6094L19.356 9.49928C19.356 9.36403 19.3021 9.23451 19.2067 9.1388C19.1112 9.04309 18.9812 8.98925 18.8459 8.98925H15.0334V6.58452C15.0334 5.42871 15.3088 4.84197 16.8145 4.84197L18.9983 4.84119C19.2798 4.84119 19.5078 4.61283 19.5078 4.33142V0.514965C19.5078 0.233815 19.28 0.00572183 18.9989 0.00520166Z" fill="#1B1A1F"/>
</g>
</g>
<defs>
<clipPath id="clip0_1_14">
<rect width="25" height="25" fill="white" transform="translate(0.249939)"/>
</clipPath>
</defs>
</svg>
