<svg width="26" height="25" viewBox="0 0 26 25" fill="none" xmlns="http://www.w3.org/2000/svg">
<g id="youtube (1) 1">
<path id="Vector" d="M24.2234 6.64198C23.9533 5.63791 23.1617 4.84641 22.1578 4.57604C20.3237 4.07422 12.9873 4.07422 12.9873 4.07422C12.9873 4.07422 5.65126 4.07422 3.8172 4.55702C2.83258 4.8271 2.02162 5.63805 1.75154 6.64198C1.26889 8.47589 1.26889 12.2792 1.26889 12.2792C1.26889 12.2792 1.26889 16.1017 1.75154 17.9164C2.02191 18.9203 2.81327 19.7118 3.81734 19.9822C5.67057 20.4842 12.9876 20.4842 12.9876 20.4842C12.9876 20.4842 20.3237 20.4842 22.1578 20.0014C23.1618 19.7311 23.9533 18.9396 24.2237 17.9357C24.7062 16.1017 24.7062 12.2985 24.7062 12.2985C24.7062 12.2985 24.7255 8.47589 24.2234 6.64198ZM10.6516 15.7928V8.76557L16.7522 12.2792L10.6516 15.7928Z" fill="#1B1A1F"/>
</g>
</svg>
