<svg width="214" height="185" viewBox="0 0 214 185" fill="none" xmlns="http://www.w3.org/2000/svg">
<g id="Group 28" opacity="0.5">
<circle id="Ellipse 9" cx="4.625" cy="180.125" r="4.625" fill="white"/>
<circle id="Ellipse 17" cx="4.625" cy="150.875" r="4.625" fill="white"/>
<circle id="Ellipse 25" cx="4.625" cy="121.625" r="4.625" fill="white"/>
<circle id="Ellipse 33" cx="4.625" cy="92.375" r="4.625" fill="white"/>
<circle id="Ellipse 41" cx="4.625" cy="63.125" r="4.625" fill="white"/>
<circle id="Ellipse 49" cx="4.625" cy="33.875" r="4.625" fill="white"/>
<circle id="Ellipse 57" cx="4.625" cy="4.625" r="4.625" fill="white"/>
<circle id="Ellipse 10" cx="33.875" cy="180.125" r="4.625" fill="white"/>
<circle id="Ellipse 18" cx="33.875" cy="150.875" r="4.625" fill="white"/>
<circle id="Ellipse 26" cx="33.875" cy="121.625" r="4.625" fill="white"/>
<circle id="Ellipse 34" cx="33.875" cy="92.375" r="4.625" fill="white"/>
<circle id="Ellipse 42" cx="33.875" cy="63.125" r="4.625" fill="white"/>
<circle id="Ellipse 50" cx="33.875" cy="33.875" r="4.625" fill="white"/>
<circle id="Ellipse 58" cx="33.875" cy="4.625" r="4.625" fill="white"/>
<circle id="Ellipse 11" cx="63.125" cy="180.125" r="4.625" fill="white"/>
<circle id="Ellipse 19" cx="63.125" cy="150.875" r="4.625" fill="white"/>
<circle id="Ellipse 27" cx="63.125" cy="121.625" r="4.625" fill="white"/>
<circle id="Ellipse 35" cx="63.125" cy="92.375" r="4.625" fill="white"/>
<circle id="Ellipse 43" cx="63.125" cy="63.125" r="4.625" fill="white"/>
<circle id="Ellipse 51" cx="63.125" cy="33.875" r="4.625" fill="white"/>
<circle id="Ellipse 59" cx="63.125" cy="4.625" r="4.625" fill="white"/>
<circle id="Ellipse 12" cx="92.375" cy="180.125" r="4.625" fill="white"/>
<circle id="Ellipse 20" cx="92.375" cy="150.875" r="4.625" fill="white"/>
<circle id="Ellipse 28" cx="92.375" cy="121.625" r="4.625" fill="white"/>
<circle id="Ellipse 36" cx="92.375" cy="92.375" r="4.625" fill="white"/>
<circle id="Ellipse 44" cx="92.375" cy="63.125" r="4.625" fill="white"/>
<circle id="Ellipse 52" cx="92.375" cy="33.875" r="4.625" fill="white"/>
<circle id="Ellipse 60" cx="92.375" cy="4.625" r="4.625" fill="white"/>
<circle id="Ellipse 13" cx="121.625" cy="180.125" r="4.625" fill="white"/>
<circle id="Ellipse 21" cx="121.625" cy="150.875" r="4.625" fill="white"/>
<circle id="Ellipse 29" cx="121.625" cy="121.625" r="4.625" fill="white"/>
<circle id="Ellipse 37" cx="121.625" cy="92.375" r="4.625" fill="white"/>
<circle id="Ellipse 45" cx="121.625" cy="63.125" r="4.625" fill="white"/>
<circle id="Ellipse 53" cx="121.625" cy="33.875" r="4.625" fill="white"/>
<circle id="Ellipse 61" cx="121.625" cy="4.625" r="4.625" fill="white"/>
<circle id="Ellipse 14" cx="150.875" cy="180.125" r="4.625" fill="white"/>
<circle id="Ellipse 22" cx="150.875" cy="150.875" r="4.625" fill="white"/>
<circle id="Ellipse 30" cx="150.875" cy="121.625" r="4.625" fill="white"/>
<circle id="Ellipse 38" cx="150.875" cy="92.375" r="4.625" fill="white"/>
<circle id="Ellipse 46" cx="150.875" cy="63.125" r="4.625" fill="white"/>
<circle id="Ellipse 54" cx="150.875" cy="33.875" r="4.625" fill="white"/>
<circle id="Ellipse 62" cx="150.875" cy="4.625" r="4.625" fill="white"/>
<circle id="Ellipse 15" cx="180.125" cy="180.125" r="4.625" fill="white"/>
<circle id="Ellipse 23" cx="180.125" cy="150.875" r="4.625" fill="white"/>
<circle id="Ellipse 31" cx="180.125" cy="121.625" r="4.625" fill="white"/>
<circle id="Ellipse 39" cx="180.125" cy="92.375" r="4.625" fill="white"/>
<circle id="Ellipse 47" cx="180.125" cy="63.125" r="4.625" fill="white"/>
<circle id="Ellipse 55" cx="180.125" cy="33.875" r="4.625" fill="white"/>
<circle id="Ellipse 63" cx="180.125" cy="4.625" r="4.625" fill="white"/>
<circle id="Ellipse 16" cx="209.375" cy="180.125" r="4.625" fill="white"/>
<circle id="Ellipse 24" cx="209.375" cy="150.875" r="4.625" fill="white"/>
<circle id="Ellipse 32" cx="209.375" cy="121.625" r="4.625" fill="white"/>
<circle id="Ellipse 40" cx="209.375" cy="92.375" r="4.625" fill="white"/>
<circle id="Ellipse 48" cx="209.375" cy="63.125" r="4.625" fill="white"/>
<circle id="Ellipse 56" cx="209.375" cy="33.875" r="4.625" fill="white"/>
<circle id="Ellipse 64" cx="209.375" cy="4.625" r="4.625" fill="white"/>
</g>
</svg>
