<svg width="140" height="64" viewBox="0 0 140 64" fill="none" xmlns="http://www.w3.org/2000/svg">
<g id="Group 46" opacity="0.5">
<circle id="Ellipse 33" cx="3.5" cy="60.5" r="3.5" fill="white"/>
<circle id="Ellipse 41" cx="3.5" cy="41.5" r="3.5" fill="white"/>
<circle id="Ellipse 49" cx="3.5" cy="22.5" r="3.5" fill="white"/>
<circle id="Ellipse 57" cx="3.5" cy="3.5" r="3.5" fill="white"/>
<circle id="Ellipse 34" cx="22.5" cy="60.5" r="3.5" fill="white"/>
<circle id="Ellipse 42" cx="22.5" cy="41.5" r="3.5" fill="white"/>
<circle id="Ellipse 50" cx="22.5" cy="22.5" r="3.5" fill="white"/>
<circle id="Ellipse 58" cx="22.5" cy="3.5" r="3.5" fill="white"/>
<circle id="Ellipse 35" cx="41.5" cy="60.5" r="3.5" fill="white"/>
<circle id="Ellipse 43" cx="41.5" cy="41.5" r="3.5" fill="white"/>
<circle id="Ellipse 51" cx="41.5" cy="22.5" r="3.5" fill="white"/>
<circle id="Ellipse 59" cx="41.5" cy="3.5" r="3.5" fill="white"/>
<circle id="Ellipse 36" cx="60.5" cy="60.5" r="3.5" fill="white"/>
<circle id="Ellipse 44" cx="60.5" cy="41.5" r="3.5" fill="white"/>
<circle id="Ellipse 52" cx="60.5" cy="22.5" r="3.5" fill="white"/>
<circle id="Ellipse 60" cx="60.5" cy="3.5" r="3.5" fill="white"/>
<circle id="Ellipse 37" cx="79.5" cy="60.5" r="3.5" fill="white"/>
<circle id="Ellipse 45" cx="79.5" cy="41.5" r="3.5" fill="white"/>
<circle id="Ellipse 53" cx="79.5" cy="22.5" r="3.5" fill="white"/>
<circle id="Ellipse 61" cx="79.5" cy="3.5" r="3.5" fill="white"/>
<circle id="Ellipse 38" cx="98.5" cy="60.5" r="3.5" fill="white"/>
<circle id="Ellipse 46" cx="98.5" cy="41.5" r="3.5" fill="white"/>
<circle id="Ellipse 54" cx="98.5" cy="22.5" r="3.5" fill="white"/>
<circle id="Ellipse 62" cx="98.5" cy="3.5" r="3.5" fill="white"/>
<circle id="Ellipse 39" cx="117.5" cy="60.5" r="3.5" fill="white"/>
<circle id="Ellipse 47" cx="117.5" cy="41.5" r="3.5" fill="white"/>
<circle id="Ellipse 55" cx="117.5" cy="22.5" r="3.5" fill="white"/>
<circle id="Ellipse 63" cx="117.5" cy="3.5" r="3.5" fill="white"/>
<circle id="Ellipse 40" cx="136.5" cy="60.5" r="3.5" fill="white"/>
<circle id="Ellipse 48" cx="136.5" cy="41.5" r="3.5" fill="white"/>
<circle id="Ellipse 56" cx="136.5" cy="22.5" r="3.5" fill="white"/>
<circle id="Ellipse 64" cx="136.5" cy="3.5" r="3.5" fill="white"/>
</g>
</svg>
