<svg width="20" height="20" viewBox="0 0 20 20" fill="none" xmlns="http://www.w3.org/2000/svg">
<g id="lifebuoy 1" clip-path="url(#clip0_1_55)">
<path id="Vector" d="M20 10.0096C20.0032 12.6798 18.9658 15.1891 17.079 17.0752C15.1949 18.9586 12.6896 19.9951 10.0227 19.9951H10.0105C7.33967 19.992 4.82752 18.9494 2.93686 17.0595C2.92752 17.0502 2.91858 17.0406 2.90928 17.0312C2.90698 17.029 2.90451 17.0271 2.90225 17.0249C2.89854 17.0212 2.89541 17.0171 2.89182 17.0134C1.02991 15.1288 0.00314753 12.637 2.25277e-05 9.98871C-0.00314153 7.32844 1.02674 4.82812 2.90018 2.94449C2.9019 2.94273 2.9033 2.94086 2.90502 2.9391C2.90608 2.93805 2.90725 2.93719 2.9083 2.93613C2.9126 2.93184 2.91674 2.92738 2.92108 2.92309C4.80514 1.0398 7.31041 0.00320244 9.97737 0.00320244C9.98127 0.00320244 9.98565 0.00320435 9.98955 0.00324249C12.6389 0.00636673 15.1317 1.0327 17.0171 2.89387C17.0208 2.89746 17.0249 2.90059 17.0286 2.90426C17.0308 2.90652 17.0327 2.90902 17.0349 2.91129C17.0443 2.92055 17.0539 2.92953 17.0632 2.93883C18.9539 4.82875 19.9969 7.33984 20 10.0096ZM16.603 4.15707L14.2165 6.54266C15.8259 8.53559 15.8306 11.4025 14.2307 13.4006L16.6512 15.8202C18.0622 14.2127 18.8319 12.1718 18.8294 10.011C18.8268 7.83266 18.0397 5.77426 16.603 4.15707ZM6.90186 6.93426C5.22143 8.61402 5.22143 11.3471 6.90186 13.0269C7.74209 13.8668 8.84576 14.2867 9.9494 14.2867C11.053 14.2867 12.1567 13.8668 12.9969 13.0269C14.6774 11.3472 14.6774 8.61406 12.9969 6.93426C11.3165 5.25457 8.58225 5.25449 6.90186 6.93426ZM10.0119 18.8249H10.0226C12.1803 18.8249 14.218 18.0558 15.8235 16.6477L13.4067 14.2319C12.4323 15.0267 11.2242 15.4589 9.94944 15.4589C8.68244 15.4589 7.48127 15.0318 6.50994 14.2461L4.15561 16.5995C5.77342 18.0356 7.83268 18.8223 10.0119 18.8249ZM3.33201 15.7679L5.68233 13.4185C4.06811 11.4197 4.06811 8.54156 5.68233 6.5427L3.33377 4.19512C1.93229 5.79996 1.16815 7.83414 1.17069 9.9873C1.17323 12.1327 1.93643 14.162 3.33201 15.7679ZM9.98815 1.1734C9.98455 1.17336 9.981 1.17336 9.97741 1.17336C7.81205 1.17336 5.7676 1.94805 4.15959 3.3657L6.50991 5.71504C7.48123 4.92937 8.6824 4.50223 9.9494 4.50223C11.2164 4.50223 12.4176 4.92937 13.3889 5.71504L15.771 3.33387C14.1646 1.93883 12.1344 1.17594 9.98815 1.1734Z" fill="#1B1A1F"/>
</g>
<defs>
<clipPath id="clip0_1_55">
<rect width="20" height="20" fill="white" transform="matrix(1 0 0 -1 -3.05176e-05 20)"/>
</clipPath>
</defs>
</svg>
