<svg width="23" height="23" viewBox="0 0 23 23" fill="none" xmlns="http://www.w3.org/2000/svg">
<g id="wi-fi 1" clip-path="url(#clip0_1_461)">
<g id="Group">
<g id="Group_2">
<path id="Vector" d="M11.5543 20.1546C13.0383 20.1546 14.2413 18.9516 14.2413 17.4676C14.2413 15.9836 13.0383 14.7806 11.5543 14.7806C10.0703 14.7806 8.86728 15.9836 8.86728 17.4676C8.86728 18.9516 10.0703 20.1546 11.5543 20.1546Z" fill="#06C3A6"/>
<path id="Vector_2" d="M17.976 10.9938C17.9362 10.9528 17.8941 10.9162 17.8531 10.8786L17.7324 10.7645C17.7124 10.7435 17.6903 10.728 17.6648 10.708C14.1903 7.55142 8.87285 7.67658 5.55675 10.9927L5.16799 11.3825L4.62971 11.9208C3.97402 12.5765 3.97735 13.6453 4.63414 14.3021C5.29204 14.9611 6.36086 14.9622 7.01544 14.3066L7.94359 13.3784C10.0524 11.2707 13.4826 11.2707 15.5903 13.3773L16.2604 14.0263C16.9094 14.6754 17.9683 14.6743 18.6207 14.0208C18.9363 13.7062 19.1102 13.2865 19.1113 12.8401C19.1124 12.396 18.9407 11.9762 18.6251 11.6628L17.976 10.9938Z" fill="#06C3A6"/>
<path id="Vector_3" d="M22.5537 7.67218L21.9954 7.11396C21.9932 7.11174 21.9921 7.10842 21.9877 7.10731L21.5469 6.66428C21.4693 6.58786 21.3852 6.5214 21.2966 6.46381C15.6335 1.49189 7.01986 1.64473 1.53734 6.91903C1.51076 6.94339 1.48086 6.96001 1.45428 6.98659L0.446379 7.99559C-0.151714 8.59258 -0.148392 9.56393 0.453024 10.1653C1.05333 10.7657 2.02468 10.7701 2.62277 10.1709L3.63067 9.16409C3.63732 9.15523 3.64285 9.14748 3.6495 9.14194C8.08314 4.85893 15.1163 4.83235 19.5854 9.05444L20.3784 9.84857C20.9754 10.4456 21.9489 10.4433 22.5492 9.84304C23.1484 9.24162 23.1507 8.26917 22.5537 7.67218Z" fill="#06C3A6"/>
</g>
</g>
</g>
<defs>
<clipPath id="clip0_1_461">
<rect width="23" height="23" fill="white"/>
</clipPath>
</defs>
</svg>
