<svg width="23" height="23" viewBox="0 0 23 23" fill="none" xmlns="http://www.w3.org/2000/svg">
<g id="moon (1) 1" clip-path="url(#clip0_1_435)">
<g id="Group">
<g id="Group_2">
<path id="Vector" d="M22.4403 13.0994C22.205 13.0406 21.9697 13.0994 21.7639 13.2465C20.9992 13.8935 20.1169 14.4229 19.1463 14.7758C18.2346 15.1288 17.2346 15.3052 16.1758 15.3052C13.7936 15.3052 11.6172 14.3347 10.0584 12.7759C8.49967 11.2171 7.52912 9.04076 7.52912 6.6585C7.52912 5.65853 7.70559 4.68798 7.99969 3.80566C8.32321 2.86452 8.79378 2.01162 9.4114 1.27635C9.6761 0.952833 9.61728 0.482263 9.29376 0.217567C9.08789 0.0705142 8.8526 0.0116929 8.61732 0.0705141C6.11741 0.746959 3.94103 2.2469 2.38226 4.24682C0.882319 6.21734 0 8.65842 0 11.3054C0 14.5111 1.29407 17.4228 3.41163 19.5404C5.5292 21.6579 8.41144 22.952 11.6466 22.952C14.3524 22.952 16.8523 22.0108 18.8522 20.4521C20.8816 18.8639 22.3521 16.5993 22.9697 14.0112C23.0873 13.5994 22.8521 13.1877 22.4403 13.0994Z" fill="#06C3A6"/>
</g>
</g>
</g>
<defs>
<clipPath id="clip0_1_435">
<rect width="23" height="23" fill="white"/>
</clipPath>
</defs>
</svg>
