<svg width="205" height="117" viewBox="0 0 205 117" fill="none" xmlns="http://www.w3.org/2000/svg">
<g clip-path="url(#clip0_1_439)">
<path d="M45.6105 12.0024C41.9015 11.9359 37.6716 13.8747 34.9942 16.8822C32.4356 16.9305 29.9442 17.9795 28.1099 19.8138C28.003 19.9191 27.965 20.0766 28.0117 20.2191C28.0592 20.3624 28.1827 20.4661 28.3316 20.4875L31.3826 20.9245L31.0058 21.3464C30.8657 21.5032 30.8728 21.7415 31.0216 21.8903L36.1097 26.9783C36.1865 27.0551 36.2878 27.0939 36.3899 27.0939C36.4841 27.0939 36.5784 27.0607 36.6536 26.9934L37.0755 26.6166L37.5125 29.6676C37.5339 29.8165 37.6511 29.9257 37.7928 29.9732C37.8292 29.9851 37.8672 29.9906 37.906 29.9906C38.0184 29.9906 38.1332 29.9416 38.2124 29.8632C40.0213 28.0542 41.0703 25.5628 41.1186 23.0042C44.1293 20.3212 46.0839 16.0929 45.9976 12.3887C45.9921 12.1781 45.8218 12.0079 45.6105 12.0024ZM41.9625 18.8361C41.5769 19.2216 41.0703 19.4148 40.5628 19.4148C40.0554 19.4148 39.5487 19.2216 39.1631 18.8361C38.3921 18.0642 38.3921 16.8086 39.1631 16.0367C39.935 15.2648 41.1906 15.2648 41.9625 16.0367C42.7344 16.8086 42.7344 18.065 41.9625 18.8361Z" fill="#06C3A6"/>
<path d="M29.1565 25.3831C28.3094 26.2302 27.1464 30.0571 27.0166 30.4902C26.9747 30.6295 27.0134 30.7807 27.1156 30.8836C27.1916 30.9596 27.2921 31 27.3958 31C27.4338 31 27.4718 30.9945 27.5098 30.9834C27.9429 30.8536 31.7698 29.6906 32.6169 28.8435C33.5708 27.8896 33.5708 26.3371 32.6169 25.3831C31.6621 24.4292 30.1104 24.43 29.1565 25.3831Z" fill="#06C3A6"/>
</g>
<path fill-rule="evenodd" clip-rule="evenodd" d="M101.789 61.0925L102.5 61.811L103.211 61.0925C105.303 58.978 108.688 55.826 112.621 53.2088C116.576 50.5763 120.959 48.5714 125.071 48.5714C130.172 48.5714 134.126 50.0902 136.804 52.7678C139.481 55.4454 141 59.3992 141 64.5C141 69.6008 139.481 73.5546 136.804 76.2322C134.126 78.9098 130.172 80.4285 125.071 80.4285C120.959 80.4285 116.576 78.4237 112.621 75.7911C108.688 73.174 105.303 70.0219 103.211 67.9074L102.5 67.189L101.789 67.9074C99.6971 70.0219 96.3123 73.174 92.3797 75.7911C88.4239 78.4237 84.0412 80.4285 79.9287 80.4285C74.828 80.4285 70.8742 78.9098 68.1966 76.2322C65.519 73.5546 64.0002 69.6007 64.0002 64.5C64.0002 59.3992 65.519 55.4454 68.1966 52.7678C70.8742 50.0902 74.828 48.5714 79.9287 48.5714C84.0412 48.5714 88.4239 50.5763 92.3797 53.2088C96.3123 55.826 99.6971 58.978 101.789 61.0925ZM99.3403 65.2029L100.036 64.4988L99.3392 63.7959C97.1828 61.621 94.0096 58.7527 90.5725 56.4203C87.1756 54.1153 83.3503 52.2142 79.9286 52.2142C76.0268 52.2142 72.9079 53.2047 70.7706 55.342C68.6333 57.4793 67.6428 60.5982 67.6428 64.5C67.6428 68.4018 68.6333 71.5207 70.7706 73.658C72.9079 75.7953 76.0268 76.7857 79.9286 76.7857C83.3624 76.7857 87.1894 74.8867 90.5853 72.5817C94.0208 70.2497 97.188 67.381 99.3403 65.2029ZM105.659 63.798L104.965 64.5021L105.661 65.204C107.817 67.379 110.99 70.2473 114.428 72.5796C117.824 74.8847 121.65 76.7857 125.071 76.7857C128.973 76.7857 132.092 75.7953 134.229 73.658C136.367 71.5207 137.357 68.4018 137.357 64.5C137.357 60.5982 136.367 57.4793 134.229 55.342C132.092 53.2047 128.973 52.2142 125.071 52.2142C121.638 52.2142 117.807 54.1139 114.41 56.4193C110.972 58.7517 107.805 61.6205 105.659 63.798Z" fill="#06C3A6"/>
<path d="M162.319 74.5817C162.404 74.1824 162.906 74.048 163.179 74.3512L168.535 80.2918C168.642 80.4105 168.799 80.4709 168.958 80.4543L176.913 79.6233C177.319 79.5809 177.602 80.0166 177.398 80.3703L173.404 87.2998C173.324 87.4382 173.315 87.6065 173.38 87.7526L176.629 95.0616C176.794 95.4347 176.467 95.8385 176.068 95.7538L168.243 94.0959C168.087 94.0627 167.924 94.1064 167.805 94.2132L161.858 99.5615C161.554 99.8344 161.069 99.6482 161.026 99.2422L160.185 91.2881C160.168 91.1292 160.076 90.9878 159.938 90.9078L153.014 86.9042C152.66 86.6998 152.688 86.181 153.06 86.0147L160.365 82.7567C160.511 82.6916 160.617 82.5606 160.651 82.4043L162.319 74.5817Z" fill="#A3A3B4"/>
<path d="M10.3181 75.0436C10.4032 74.6443 10.9051 74.5098 11.1784 74.813L14.8286 78.8617C14.9356 78.9805 15.093 79.0408 15.2519 79.0242L20.6737 78.4579C21.0797 78.4155 21.3627 78.8512 21.1588 79.2049L18.4362 83.9276C18.3564 84.066 18.3475 84.2343 18.4125 84.3804L20.6265 89.3618C20.7923 89.7348 20.4653 90.1386 20.0659 90.054L14.7331 88.924C14.5767 88.8909 14.414 88.9345 14.2951 89.0414L10.2417 92.6864C9.93816 92.9593 9.4531 92.7731 9.41016 92.3672L8.83688 86.9462C8.82007 86.7872 8.72829 86.6459 8.58993 86.5659L3.87075 83.8372C3.51734 83.6329 3.54453 83.114 3.91737 82.9477L8.89591 80.7273C9.04188 80.6622 9.14793 80.5313 9.18126 80.375L10.3181 75.0436Z" fill="#A3A3B4"/>
<path d="M153.28 4.14133C153.478 3.78411 153.997 3.80146 154.17 4.17108L156.485 9.10664C156.553 9.25135 156.685 9.3549 156.842 9.38526L162.194 10.4208C162.595 10.4984 162.739 10.9976 162.441 11.2766L158.462 15.0029C158.346 15.1122 158.288 15.2706 158.308 15.4292L158.977 20.8393C159.027 21.2444 158.597 21.5356 158.239 21.3385L153.466 18.7059C153.326 18.6287 153.157 18.623 153.013 18.6907L148.074 20.9988C147.704 21.1716 147.294 20.8523 147.371 20.4514L148.4 15.0981C148.43 14.9412 148.384 14.7793 148.274 14.6625L144.553 10.6789C144.275 10.3805 144.452 9.89204 144.857 9.84142L150.266 9.16549C150.424 9.14567 150.564 9.05123 150.641 8.91137L153.28 4.14133Z" fill="#A3A3B4"/>
<path d="M168.19 38.0928C168.498 37.8259 168.98 38.0218 169.015 38.4285L169.275 41.4739C169.289 41.6331 169.378 41.7762 169.515 41.859L172.129 43.4414C172.479 43.6528 172.441 44.171 172.065 44.3298L169.249 45.5188C169.102 45.581 168.994 45.7098 168.957 45.8654L168.26 48.8414C168.167 49.2389 167.663 49.3633 167.395 49.0547L165.394 46.7442C165.29 46.6234 165.134 46.5599 164.974 46.5733L161.929 46.8301C161.522 46.8644 161.248 46.4231 161.459 46.0735L163.038 43.4566C163.12 43.3197 163.133 43.1517 163.071 43.0043L161.885 40.1871C161.727 39.8108 162.062 39.4136 162.459 39.5062L165.436 40.1993C165.592 40.2356 165.756 40.1952 165.876 40.0907L168.19 38.0928Z" fill="#A3A3B4"/>
<path d="M43.1895 52.0928C43.4985 51.8259 43.9797 52.0218 44.0146 52.4285L44.2752 55.4739C44.2889 55.6331 44.3778 55.7762 44.5146 55.859L47.1295 57.4414C47.4788 57.6528 47.4412 58.171 47.0651 58.3298L44.2494 59.5188C44.1022 59.581 43.9935 59.7098 43.9571 59.8654L43.2601 62.8414C43.1671 63.2389 42.6626 63.3633 42.3953 63.0547L40.3944 60.7442C40.2898 60.6234 40.1337 60.5599 39.9745 60.5733L36.9288 60.8301C36.522 60.8644 36.2478 60.4231 36.4587 60.0735L38.0378 57.4566C38.1204 57.3197 38.1325 57.1517 38.0705 57.0043L36.8852 54.1871C36.7268 53.8108 37.0618 53.4136 37.4594 53.5062L40.4363 54.1993C40.5919 54.2356 40.7555 54.1952 40.8765 54.0907L43.1895 52.0928Z" fill="#A3A3B4"/>
<path d="M115.117 20.3995C115.524 20.3784 115.784 20.8283 115.562 21.1708L112.36 26.1084C112.273 26.2425 112.256 26.4101 112.313 26.5594L114.418 32.0548C114.564 32.436 114.217 32.8221 113.822 32.7167L108.137 31.1972C107.982 31.156 107.818 31.191 107.693 31.2915L103.117 34.9921C102.8 35.2488 102.325 35.0374 102.304 34.6298L101.992 28.7531C101.983 28.5935 101.899 28.4476 101.765 28.3604L96.8318 25.1521C96.4895 24.9295 96.5438 24.4128 96.9249 24.2663L102.418 22.1538C102.567 22.0964 102.68 21.9712 102.721 21.8168L104.248 16.1334C104.354 15.7391 104.862 15.6311 105.119 15.9482L108.825 20.5193C108.926 20.6434 109.08 20.712 109.24 20.7037L115.117 20.3995Z" fill="#A3A3B4"/>
<path d="M68.1167 96.3995C68.5244 96.3784 68.7842 96.8283 68.5621 97.1708L65.3601 102.108C65.2731 102.243 65.2555 102.41 65.3127 102.559L67.4181 108.055C67.5642 108.436 67.2165 108.822 66.8221 108.717L61.1367 107.197C60.9823 107.156 60.8175 107.191 60.6932 107.291L56.1174 110.992C55.8 111.249 55.3253 111.037 55.3037 110.63L54.9919 104.753C54.9835 104.594 54.8992 104.448 54.7652 104.36L49.8318 101.152C49.4895 100.93 49.5438 100.413 49.9249 100.266L55.4176 98.1538C55.5667 98.0964 55.6795 97.9712 55.721 97.8168L57.2477 92.1334C57.3537 91.7391 57.8619 91.6311 58.119 91.9482L61.8254 96.5193C61.9261 96.6434 62.08 96.712 62.2397 96.7037L68.1167 96.3995Z" fill="#A3A3B4"/>
<path d="M75.7692 4.22067C76.1769 4.19956 76.4367 4.64953 76.2146 4.99205L75.1583 6.62086C75.0713 6.75496 75.0537 6.92255 75.1109 7.0718L75.8054 8.88463C75.9515 9.26584 75.6038 9.65196 75.2094 9.54656L73.3339 9.04531C73.1795 9.00404 73.0147 9.03907 72.8904 9.13958L71.3809 10.3603C71.0635 10.617 70.5889 10.4057 70.5672 9.99804L70.4644 8.05944C70.4559 7.89984 70.3717 7.7539 70.2377 7.66677L68.6102 6.6084C68.268 6.38584 68.3223 5.86911 68.7033 5.72257L70.5153 5.02569C70.6644 4.96832 70.7772 4.84309 70.8187 4.68874L71.3223 2.81388C71.4282 2.41962 71.9365 2.3116 72.1936 2.62869L73.4163 4.1366C73.5169 4.26075 73.6709 4.32929 73.8305 4.32103L75.7692 4.22067Z" fill="#A3A3B4"/>
<path d="M200.769 57.2207C201.177 57.1996 201.437 57.6495 201.215 57.9921L200.158 59.6209C200.071 59.755 200.054 59.9225 200.111 60.0718L200.805 61.8846C200.951 62.2658 200.604 62.652 200.209 62.5466L198.334 62.0453C198.179 62.004 198.015 62.0391 197.89 62.1396L196.381 63.3603C196.063 63.617 195.589 63.4057 195.567 62.998L195.464 61.0594C195.456 60.8998 195.372 60.7539 195.238 60.6668L193.61 59.6084C193.268 59.3858 193.322 58.8691 193.703 58.7226L195.515 58.0257C195.664 57.9683 195.777 57.8431 195.819 57.6887L196.322 55.8139C196.428 55.4196 196.936 55.3116 197.194 55.6287L198.416 57.1366C198.517 57.2607 198.671 57.3293 198.83 57.321L200.769 57.2207Z" fill="#A3A3B4"/>
<path d="M144.769 101.221C145.177 101.2 145.437 101.65 145.215 101.992L144.158 103.621C144.071 103.755 144.054 103.923 144.111 104.072L144.805 105.885C144.951 106.266 144.604 106.652 144.209 106.547L142.334 106.045C142.18 106.004 142.015 106.039 141.89 106.14L140.381 107.36C140.064 107.617 139.589 107.406 139.567 106.998L139.464 105.059C139.456 104.9 139.372 104.754 139.238 104.667L137.61 103.608C137.268 103.386 137.322 102.869 137.703 102.723L139.515 102.026C139.664 101.968 139.777 101.843 139.819 101.689L140.322 99.8139C140.428 99.4196 140.936 99.3116 141.194 99.6287L142.416 101.137C142.517 101.261 142.671 101.329 142.83 101.321L144.769 101.221Z" fill="#A3A3B4"/>
<defs>
<clipPath id="clip0_1_439">
<rect width="19" height="19" fill="white" transform="translate(27 12)"/>
</clipPath>
</defs>
</svg>
