<svg width="202" height="115" viewBox="0 0 202 115" fill="none" xmlns="http://www.w3.org/2000/svg">
<g clip-path="url(#clip0_1_498)">
<path d="M36.6955 2.18535C36.5506 2.19385 33.085 2.42882 27.6926 5.4744C22.3002 8.51999 20.3097 11.3667 20.2276 11.4863C20.0868 11.6917 20.0751 11.9592 20.1975 12.176L23.6397 18.2706C26.564 23.4482 32.5155 26.1249 38.4492 24.9312C38.5171 24.9176 38.5818 24.8934 38.6413 24.8597C38.7009 24.8261 38.7551 24.7832 38.8018 24.7321C42.8877 20.2667 43.6681 13.7879 40.7439 8.61031L37.3017 2.51571C37.1792 2.29892 36.944 2.17076 36.6955 2.18535ZM39.608 9.2518C42.2195 13.8756 41.561 19.6514 37.9822 23.6927C32.6735 24.6711 27.3871 22.2529 24.7756 17.6291L21.5471 11.9128C22.2051 11.118 24.2456 8.91941 28.3341 6.61026C32.4226 4.3011 35.359 3.68874 36.3795 3.53556L39.608 9.2518Z" fill="#06C3A6"/>
<path d="M30.6005 12.218C30.6345 11.9349 30.4807 11.6625 30.2206 11.5454C30.1346 11.5067 28.0957 10.6068 26.566 11.4708C25.0363 12.3348 24.7543 14.5455 24.743 14.6392C24.709 14.9223 24.8629 15.1947 25.1229 15.3118C25.209 15.3505 27.2478 16.2503 28.7775 15.3864C30.3072 14.5224 30.5893 12.3117 30.6005 12.218ZM26.144 14.2931C26.2861 13.7617 26.5948 12.9527 27.2076 12.6067C27.7896 12.2779 28.6303 12.4018 29.2013 12.5647C29.046 13.1379 28.7181 13.9217 28.136 14.2505C27.5544 14.579 26.7145 14.4556 26.144 14.2931Z" fill="#06C3A6"/>
<path d="M35.6211 11.5211C37.1508 10.6572 37.4328 8.44646 37.4441 8.35279C37.4781 8.06966 37.3242 7.79724 37.0642 7.68018C36.9781 7.64144 34.9393 6.74161 33.4096 7.60557C31.8799 8.46954 31.5978 10.6802 31.5866 10.7739C31.5525 11.0571 31.7064 11.3295 31.9664 11.4465C32.0525 11.4852 34.0913 12.3851 35.6211 11.5211ZM34.0511 8.74143C34.6332 8.41267 35.4738 8.53652 36.0449 8.69944C35.8896 9.27263 35.5616 10.0565 34.9795 10.3852C34.3979 10.7137 33.558 10.5903 32.9876 10.4278C33.1296 9.89647 33.4383 9.08751 34.0511 8.74143Z" fill="#06C3A6"/>
<path d="M36.8481 13.6935L29.7774 17.687C29.4637 17.8642 29.3531 18.2621 29.5302 18.5757C30.8081 20.8383 33.6885 21.6394 35.951 20.3615C38.2136 19.0836 39.0147 16.2033 37.7368 13.9407C37.5596 13.6271 37.1617 13.5164 36.8481 13.6935ZM35.3095 19.2257C33.8674 20.0401 32.0783 19.6868 31.0413 18.4713L36.8672 15.181C37.3727 16.6966 36.7516 18.4112 35.3095 19.2257Z" fill="#06C3A6"/>
</g>
<g clip-path="url(#clip1_1_498)">
<path d="M131.019 32.527C130.963 32.4778 129.602 31.3125 126.517 30.4858C123.432 29.6592 121.671 29.9881 121.597 30.0025C121.471 30.0272 121.37 30.1215 121.337 30.2455L120.403 33.7324C119.609 36.6946 120.833 39.8296 123.449 41.5335C123.479 41.553 123.511 41.5675 123.545 41.5766C123.579 41.5857 123.615 41.5895 123.65 41.5876C126.767 41.4197 129.395 39.3166 130.189 36.3544L131.123 32.8676C131.156 32.7435 131.116 32.6114 131.019 32.527ZM129.539 36.1803C128.83 38.8257 126.501 40.714 123.724 40.9089C121.416 39.3515 120.344 36.5519 121.053 33.9065L121.929 30.6361C122.458 30.5812 124.004 30.5089 126.343 31.1357C128.682 31.7624 129.984 32.5977 130.415 32.9099L129.539 36.1803Z" fill="#A3A3B4"/>
<path d="M125.152 34.0186C125.266 33.9267 125.308 33.7708 125.255 33.6338C125.237 33.5884 124.811 32.5208 123.936 32.2863C123.061 32.0517 122.159 32.7636 122.121 32.7941C122.006 32.886 121.964 33.0419 122.018 33.1789C122.035 33.2242 122.461 34.2919 123.336 34.5264C124.211 34.7609 125.114 34.049 125.152 34.0186ZM122.761 33.1728C123.006 33.0284 123.412 32.8422 123.762 32.9361C124.095 33.0253 124.36 33.3746 124.511 33.6408C124.247 33.7957 123.843 33.9658 123.51 33.8766C123.177 33.7874 122.913 33.4386 122.761 33.1728Z" fill="#A3A3B4"/>
<path d="M127.251 35.5755C128.127 35.81 129.029 35.0981 129.067 35.0677C129.182 34.9757 129.223 34.8199 129.17 34.6829C129.152 34.6375 128.727 33.5698 127.852 33.3353C126.976 33.1008 126.074 33.8127 126.036 33.8431C125.921 33.9351 125.88 34.0909 125.933 34.228C125.951 34.2733 126.376 35.341 127.251 35.5755ZM127.677 33.9852C128.011 34.0744 128.275 34.4236 128.427 34.6899C128.162 34.8448 127.759 35.0149 127.425 34.9256C127.093 34.8365 126.828 34.4877 126.677 34.2218C126.921 34.0775 127.327 33.8912 127.677 33.9852Z" fill="#A3A3B4"/>
<path d="M126.918 36.8185L122.873 35.7345C122.694 35.6864 122.509 35.7929 122.461 35.9724C122.114 37.2668 122.885 38.6021 124.18 38.949C125.474 39.2958 126.809 38.5249 127.156 37.2304C127.204 37.051 127.098 36.8665 126.918 36.8185ZM124.354 38.2991C123.529 38.0781 122.998 37.3018 123.055 36.4798L126.388 37.3729C126.027 38.1134 125.179 38.5202 124.354 38.2991Z" fill="#A3A3B4"/>
</g>
<g clip-path="url(#clip2_1_498)">
<path d="M87.7645 37.3692L90.4955 37.9112C90.5914 39.4458 91.9133 40.612 93.4479 40.5161C94.9826 40.4201 96.1488 39.0983 96.0528 37.5636C95.9569 36.029 94.635 34.8628 93.1004 34.9588C92.1055 35.021 91.2198 35.6103 90.7782 36.504L87.9521 35.9432C87.9214 34.8727 87.5072 33.8489 86.785 33.0582L90.5946 27.6766C92.3587 28.4417 94.4089 27.6318 95.174 25.8678C95.939 24.1038 95.1292 22.0535 93.3652 21.2884C91.6012 20.5234 89.5508 21.3332 88.7858 23.0972C88.2369 24.363 88.487 25.8334 89.4237 26.8463L85.6593 32.1641C83.8583 31.1534 81.5994 31.507 80.1935 33.0197L75.2605 29.1888C75.9119 27.7924 75.3078 26.1324 73.9115 25.4811C72.515 24.8297 70.8551 25.4338 70.2037 26.8301C69.5524 28.2266 70.1564 29.8865 71.5528 30.5378C72.4587 30.9604 73.5215 30.866 74.3387 30.2903L79.3924 34.2149C78.5806 35.988 79.0105 38.0827 80.4551 39.3927L77.4279 43.6739C75.6408 42.6775 73.3843 43.3185 72.388 45.1057C71.3917 46.8928 72.0327 49.1492 73.8198 50.1456C75.6069 51.1419 77.8634 50.5009 78.8597 48.7138C79.5902 47.4035 79.4585 45.782 78.5259 44.6068L81.6584 40.1764C82.7499 40.6606 83.9898 40.6878 85.1015 40.2521L88.8462 45.7839C87.7011 47.0882 87.8301 49.0738 89.1343 50.2189C90.4386 51.3641 92.4242 51.235 93.5693 49.9308C94.7144 48.6266 94.5854 46.6409 93.2812 45.4958C92.3844 44.7084 91.119 44.4969 90.0149 44.9499L86.3392 39.52C87.0142 38.9576 87.5097 38.21 87.7645 37.3692ZM93.2728 36.3886C94.0173 36.3886 94.6209 36.9922 94.6209 37.7367C94.6209 38.4812 94.0173 39.0847 93.2728 39.0847C92.5283 39.0847 91.9248 38.4812 91.9248 37.7367C91.9254 36.9924 92.5286 36.3892 93.2728 36.3886ZM91.9705 22.4523C93.0953 22.4524 94.0073 23.3643 94.0072 24.4892C94.0071 25.6141 93.0952 26.526 91.9703 26.5259C90.8455 26.5258 89.9336 25.614 89.9336 24.4891C89.935 23.3647 90.8461 22.4536 91.9705 22.4523ZM72.7372 29.3636C71.993 29.3628 71.39 28.7597 71.3891 28.0156C71.3891 27.2711 71.9927 26.6675 72.7372 26.6675C73.4816 26.6675 74.0852 27.2711 74.0852 28.0156C74.0852 28.7601 73.4817 29.3636 72.7372 29.3636ZM75.6332 49.1608C74.3853 49.1607 73.3738 48.1492 73.3739 46.9013C73.3739 45.6534 74.3855 44.6419 75.6333 44.642C76.8811 44.6421 77.8927 45.6536 77.8927 46.9014C77.8913 48.1487 76.8805 49.1594 75.6332 49.1608ZM91.2072 46.1503C92.1526 46.1514 92.9187 46.9175 92.9198 47.8629C92.9198 48.8088 92.153 49.5755 91.2072 49.5755C90.2613 49.5755 89.4946 48.8088 89.4946 47.8629C89.4946 46.917 90.2614 46.1503 91.2072 46.1503ZM83.4707 39.1252C81.7874 39.1233 80.4233 37.7592 80.4214 36.0759C80.4214 34.3919 81.7866 33.0267 83.4707 33.0267C85.1547 33.0267 86.5199 34.3919 86.5199 36.0759C86.5199 37.76 85.1547 39.1252 83.4707 39.1252Z" fill="#06C3A6"/>
</g>
<g clip-path="url(#clip3_1_498)">
<path d="M44.3024 54.1188C44.5479 53.5483 44.7798 53.0093 45.014 52.4924C45.1975 52.0874 45.0181 51.6104 44.613 51.4268C41.477 50.0058 39.4977 48.0226 38.3843 45.1856C38.2251 44.7797 37.772 44.5745 37.3619 44.7223C34.495 45.7557 31.6993 45.5752 28.5635 44.1542C28.1585 43.9707 27.6814 44.1503 27.4979 44.5552C27.2637 45.0722 27.0113 45.6021 26.7441 46.1629C24.2584 51.381 20.8542 58.5275 28.2524 65.5466C28.318 65.6089 28.393 65.6592 28.4742 65.6959C28.5553 65.7327 28.6427 65.756 28.7326 65.7643C38.8885 66.6993 42.0177 59.428 44.3024 54.1188ZM29.1591 64.1845C22.871 58.0393 25.6991 52.1009 28.1978 46.8554C28.3478 46.5406 28.4931 46.2354 28.6339 45.9356C31.6272 47.1425 34.3791 47.3167 37.1834 46.4763C38.4005 49.1389 40.3462 51.0935 43.2273 52.5483C43.0947 52.8518 42.9612 53.1621 42.8235 53.4822C40.5266 58.8194 37.926 64.8611 29.1591 64.1845Z" fill="#06C3A6"/>
<path d="M36.9001 53.8181L31.7572 55.7534L30.9313 53.5588C30.7747 53.1427 30.3103 52.9323 29.8943 53.0889C29.4782 53.2456 29.2678 53.7098 29.4244 54.1259L30.5339 57.074C30.6121 57.282 30.7674 57.4386 30.9551 57.5236C31.1427 57.6087 31.3628 57.6222 31.5708 57.5439L37.4671 55.325C37.8833 55.1684 38.0937 54.7041 37.9371 54.2881C37.7805 53.872 37.3163 53.6615 36.9001 53.8181Z" fill="#06C3A6"/>
</g>
<g clip-path="url(#clip4_1_498)">
<path d="M159.786 83.8622C159.778 83.4572 159.771 83.0747 159.771 82.7046C159.771 82.4146 159.536 82.1795 159.246 82.1795C157 82.1795 155.291 81.5342 153.866 80.1487C153.662 79.9504 153.337 79.9505 153.134 80.1487C151.709 81.5342 149.999 82.1795 147.754 82.1795C147.464 82.1795 147.229 82.4146 147.229 82.7046C147.229 83.0747 147.222 83.4575 147.214 83.8625C147.142 87.6313 147.044 92.7928 153.328 94.9711C153.383 94.9904 153.442 95 153.5 95C153.558 95 153.616 94.9904 153.672 94.9711C159.956 92.7928 159.858 87.6311 159.786 83.8622ZM153.5 93.9178C148.11 91.96 148.192 87.6711 148.264 83.8825C148.268 83.6552 148.273 83.4348 148.276 83.2187C150.378 83.13 152.06 82.4927 153.5 81.2386C154.939 82.4927 156.621 83.13 158.724 83.2187C158.727 83.4347 158.732 83.6549 158.736 83.8822C158.808 87.6709 158.89 91.9599 153.5 93.9178Z" fill="#A3A3B4"/>
</g>
<g clip-path="url(#clip5_1_498)">
<path d="M162.565 67.7381L149.198 64.1564C147.971 63.8274 147.238 62.5605 147.567 61.3316L150.353 50.9351C150.682 49.7062 151.95 48.9752 153.178 49.3042L166.545 52.8859C167.773 53.2149 168.505 54.4818 168.176 55.7107L165.39 66.1072C165.061 67.3361 163.793 68.0671 162.565 67.7381ZM152.78 50.7894C152.371 50.6798 151.948 50.9231 151.838 51.3331L149.053 61.7296C148.943 62.1395 149.187 62.5616 149.596 62.6712L162.963 66.2529C163.372 66.3625 163.795 66.1192 163.905 65.7092L166.691 55.3127C166.8 54.9028 166.556 54.4807 166.147 54.3711L152.78 50.7894Z" fill="#06C3A6"/>
<path d="M164.662 53.9731C164.252 53.8632 164.008 53.4414 164.118 53.0315L165.113 49.3184C165.771 46.8618 164.308 44.3271 161.851 43.6689C159.395 43.0106 156.86 44.474 156.202 46.9306L155.207 50.6437C155.097 51.0536 154.675 51.2972 154.265 51.1873C153.855 51.0775 153.612 50.6556 153.722 50.2457L154.716 46.5327C155.594 43.2562 158.973 41.3057 162.249 42.1836C165.526 43.0616 167.476 46.4399 166.598 49.7164L165.603 53.4294C165.493 53.8393 165.072 54.0829 164.662 53.9731Z" fill="#06C3A6"/>
</g>
<g clip-path="url(#clip6_1_498)">
<path d="M18.2362 36.4773L12.4774 42.2361C11.9485 42.765 11.0872 42.7655 10.5578 42.2361L6.07875 37.757C5.54934 37.2276 5.5498 36.3664 6.07876 35.8374L11.8375 30.0787C12.3665 29.5497 13.2277 29.5492 13.7571 30.0787L18.2362 34.5577C18.7656 35.0871 18.7651 35.9484 18.2362 36.4773ZM6.71862 36.4773C6.54241 36.6535 6.54202 36.9406 6.71862 37.1172L11.1977 41.5962C11.3743 41.7728 11.6613 41.7724 11.8375 41.5962L17.5963 35.8374C17.7725 35.6612 17.7729 35.3742 17.5963 35.1976L13.1173 30.7185C12.9407 30.5419 12.6536 30.5423 12.4774 30.7185L6.71862 36.4773Z" fill="#A3A3B4"/>
<path d="M11.8375 31.3584C11.6609 31.535 11.3742 31.535 11.1976 31.3584L9.59793 29.7588C8.53956 28.7004 6.81711 28.7004 5.75874 29.7587C4.70037 30.8171 4.70037 32.5396 5.75874 33.5979L7.35841 35.1976C7.53501 35.3742 7.53501 35.6609 7.35841 35.8375C7.1818 36.0141 6.89514 36.0141 6.71854 35.8375L5.11888 34.2378C3.7073 32.8262 3.7073 30.5305 5.11888 29.1189C6.53045 27.7073 8.82622 27.7073 10.2378 29.1189L11.8375 30.7185C12.0141 30.8952 12.0141 31.1818 11.8375 31.3584Z" fill="#A3A3B4"/>
</g>
<g clip-path="url(#clip7_1_498)">
<path d="M156.269 10.3625C154.878 8.50649 152.788 7.30054 150.485 7.02512C145.833 6.45409 141.599 9.76257 141.028 14.4148C140.745 16.7152 141.416 19.031 142.884 20.8244C142.888 20.8298 142.889 20.8373 142.894 20.8421C142.937 20.895 142.985 20.9412 143.029 20.9924C143.15 21.1294 143.27 21.2706 143.399 21.4042C143.468 21.4738 143.54 21.5437 143.612 21.6086C143.735 21.7256 143.857 21.8426 143.987 21.9526C144.075 22.0245 144.167 22.0967 144.258 22.1689C144.378 22.263 144.498 22.3577 144.624 22.4457C144.731 22.5198 144.841 22.5857 144.95 22.6546C145.069 22.7302 145.186 22.8056 145.309 22.8755C145.432 22.9455 145.557 23.0035 145.683 23.0664C145.808 23.1294 145.916 23.1865 146.038 23.2404C146.175 23.3004 146.316 23.3513 146.457 23.4044C146.574 23.4485 146.686 23.4965 146.808 23.5357C146.97 23.589 147.136 23.6306 147.302 23.674C147.404 23.7011 147.504 23.734 147.608 23.757C147.881 23.8176 148.157 23.8665 148.438 23.9006C148.719 23.9347 148.999 23.9535 149.278 23.9599C149.385 23.9624 149.489 23.9543 149.595 23.9525C149.767 23.9501 149.938 23.9495 150.108 23.9366C150.232 23.9271 150.357 23.9056 150.48 23.8931C150.629 23.8751 150.779 23.8597 150.926 23.8342C151.057 23.8109 151.184 23.7787 151.313 23.7503C151.441 23.7218 151.586 23.6918 151.721 23.6544C151.856 23.6169 151.989 23.5702 152.123 23.5259C152.245 23.4851 152.368 23.4474 152.489 23.401C152.632 23.3456 152.771 23.2824 152.911 23.2199C153.017 23.1716 153.122 23.1288 153.226 23.0748C153.378 22.9991 153.525 22.9149 153.672 22.8306C153.758 22.7799 153.844 22.7353 153.928 22.6832C154.085 22.586 154.235 22.4808 154.386 22.3719C154.441 22.3328 154.499 22.2994 154.553 22.2583C154.559 22.2547 154.561 22.2477 154.567 22.2435C158.318 19.4327 159.08 14.1134 156.269 10.3625ZM153.544 21.4791C153.423 21.5622 153.299 21.6401 153.174 21.7147C153.1 21.7584 153.026 21.8014 152.951 21.8424C152.832 21.9081 152.712 21.9693 152.591 22.0273C152.502 22.0698 152.413 22.1102 152.322 22.1494C152.209 22.1968 152.094 22.2439 151.977 22.2909C151.875 22.3286 151.771 22.3631 151.667 22.3969C151.562 22.4307 151.447 22.4662 151.335 22.496C151.224 22.5259 151.105 22.5525 150.989 22.5763C150.883 22.5989 150.777 22.6226 150.67 22.6408C150.545 22.6624 150.416 22.6766 150.288 22.6916C150.187 22.7026 150.088 22.7168 149.987 22.7241C149.84 22.7345 149.692 22.736 149.543 22.7381C149.459 22.7389 149.375 22.7439 149.29 22.7422C149.056 22.7364 148.82 22.7212 148.583 22.6924C148.346 22.6636 148.113 22.6219 147.885 22.5715C147.802 22.5529 147.721 22.5278 147.639 22.5069C147.495 22.4692 147.352 22.4322 147.212 22.3872C147.116 22.3559 147.023 22.3183 146.928 22.2835C146.807 22.2382 146.686 22.193 146.568 22.1426C146.469 22.0994 146.372 22.0509 146.274 22.0035C146.167 21.9514 146.061 21.8987 145.957 21.8428C145.854 21.7868 145.757 21.7274 145.66 21.6672C145.562 21.607 145.474 21.5511 145.383 21.49C145.281 21.4201 145.181 21.3473 145.082 21.27C145.004 21.2104 144.926 21.1496 144.851 21.0872C144.747 21.0018 144.645 20.9136 144.546 20.8214C144.482 20.7636 144.421 20.7042 144.36 20.6442C144.256 20.5417 144.154 20.4358 144.056 20.3266C144.032 20.3035 144.011 20.2753 143.988 20.2492C144.264 18.2029 145.8 16.553 147.822 16.1325C148.737 16.7123 149.864 16.8492 150.891 16.5053C152.753 17.3976 153.85 19.3673 153.628 21.4202C153.6 21.44 153.573 21.46 153.544 21.4791ZM147.797 11.6008C148.591 10.5198 150.11 10.2866 151.191 11.0799C152.272 11.8732 152.505 13.3926 151.712 14.4736C151.449 14.8322 151.092 15.1117 150.681 15.2814C150.678 15.281 150.674 15.2806 150.67 15.2838C150.5 15.3533 150.322 15.4043 150.141 15.4359C150.108 15.4411 150.078 15.4496 150.044 15.4534C149.981 15.4618 149.917 15.465 149.854 15.4683C149.734 15.4745 149.614 15.472 149.496 15.4608L149.427 15.4525C149.309 15.4349 149.192 15.4086 149.077 15.374C149.019 15.3558 148.956 15.3372 148.896 15.3141C148.865 15.3024 148.839 15.2869 148.807 15.2739C148.638 15.1997 148.478 15.1077 148.329 14.9994L148.318 14.9944C147.237 14.2011 147.004 12.6818 147.797 11.6008ZM154.842 20.3553C154.674 18.5049 153.673 16.8318 152.121 15.8103C153.649 14.5036 153.829 12.2048 152.523 10.676C151.216 9.14715 148.917 8.96717 147.388 10.2739C145.951 11.5025 145.693 13.6266 146.794 15.1634C145.043 15.7836 143.67 17.1682 143.064 18.9247C141.149 15.3897 142.462 10.9714 145.997 9.05633C149.532 7.14121 153.95 8.45439 155.866 11.9894C156.585 13.3183 156.874 14.8383 156.691 16.3385C156.509 17.8375 155.862 19.242 154.842 20.3553Z" fill="#06C3A6"/>
</g>
<g clip-path="url(#clip8_1_498)">
<path d="M37.1705 85.3651C35.6756 84.4587 33.8749 84.2037 32.187 84.6593C28.7733 85.5694 26.7436 89.0746 27.6538 92.4883C28.1038 94.1763 29.2245 95.6068 30.7558 96.4477C30.7603 96.4503 30.763 96.4552 30.7674 96.4574C30.8124 96.4823 30.8591 96.501 30.9042 96.5245C31.0274 96.5862 31.1513 96.651 31.2789 96.7083C31.3468 96.7374 31.417 96.766 31.4854 96.7912C31.6041 96.8385 31.7229 96.8858 31.8445 96.9261C31.9266 96.9515 32.0109 96.9762 32.0948 97.0011C32.2056 97.033 32.3161 97.0654 32.4288 97.0916C32.5242 97.1134 32.6196 97.1286 32.7152 97.1461C32.8199 97.1654 32.9232 97.185 33.0288 97.1994C33.1345 97.2137 33.2383 97.219 33.3438 97.2277C33.4494 97.2363 33.541 97.2459 33.6409 97.2494C33.7536 97.2529 33.8671 97.2485 33.9801 97.2462C34.0743 97.2441 34.1666 97.2459 34.2624 97.2392C34.3909 97.2308 34.5188 97.2131 34.647 97.1968C34.7263 97.1869 34.805 97.1819 34.8843 97.1687C35.0921 97.1344 35.2992 97.0907 35.5051 97.0355C35.711 96.9804 35.9122 96.9146 36.1093 96.8405C36.1846 96.8123 36.2552 96.7772 36.3288 96.7461C36.4481 96.6962 36.5677 96.6476 36.6831 96.5906C36.7667 96.5492 36.848 96.499 36.9311 96.4554C37.0302 96.401 37.1306 96.348 37.2265 96.2887C37.3113 96.2357 37.3913 96.1773 37.4729 96.1213C37.5545 96.0653 37.6478 96.0034 37.7315 95.9393C37.8152 95.8752 37.8954 95.8049 37.9764 95.7363C38.0505 95.6734 38.1256 95.6125 38.1973 95.546C38.2818 95.467 38.3612 95.3836 38.4413 95.3006C38.5015 95.2371 38.5632 95.1775 38.6206 95.1105C38.7057 95.0147 38.7849 94.9144 38.8641 94.8141C38.9097 94.7545 38.9574 94.6991 39.0015 94.639C39.0837 94.527 39.1592 94.4111 39.234 94.2925C39.2613 94.2497 39.2924 94.2101 39.319 94.166C39.3217 94.162 39.3216 94.1563 39.3242 94.1518C41.1559 91.1307 40.1916 87.1967 37.1705 85.3651ZM38.3943 93.9051C38.3328 93.9973 38.2677 94.0868 38.2012 94.1742C38.1619 94.2255 38.1224 94.2763 38.0813 94.3262C38.0168 94.4055 37.9502 94.4821 37.8817 94.5568C37.8319 94.6114 37.7804 94.6649 37.7282 94.7178C37.6623 94.7828 37.595 94.8482 37.5269 94.9138C37.4659 94.969 37.403 95.0223 37.3395 95.0753C37.2761 95.1283 37.2056 95.1855 37.1358 95.2379C37.066 95.2902 36.9909 95.3421 36.9165 95.3914C36.8487 95.437 36.7811 95.4835 36.7115 95.5263C36.6303 95.5765 36.5437 95.6229 36.4582 95.6695C36.3911 95.7055 36.3255 95.7434 36.2568 95.777C36.1575 95.8254 36.0544 95.8682 35.9509 95.9115C35.892 95.9358 35.8345 95.9631 35.7747 95.9858C35.6094 96.0476 35.4401 96.1034 35.2664 96.1499C35.0927 96.1964 34.9182 96.2328 34.7442 96.2619C34.6811 96.2722 34.6176 96.2773 34.5544 96.2857C34.4432 96.2999 34.3324 96.3144 34.2223 96.3222C34.146 96.3275 34.0702 96.3274 33.9941 96.3298C33.8967 96.3322 33.7998 96.3345 33.7031 96.3324C33.6215 96.3301 33.5397 96.3237 33.4581 96.318C33.3688 96.3117 33.2794 96.3048 33.1914 96.2948C33.1035 96.2847 33.0191 96.2704 32.9337 96.2558C32.8484 96.2413 32.7711 96.227 32.6907 96.2096C32.5996 96.1895 32.5088 96.167 32.4183 96.1405C32.3468 96.1209 32.2754 96.1002 32.205 96.0779C32.1083 96.0474 32.0122 96.0144 31.9168 95.978C31.8562 95.9554 31.7967 95.9311 31.737 95.9063C31.6356 95.8638 31.5344 95.8185 31.4352 95.7698C31.4118 95.7604 31.3892 95.7466 31.3657 95.7349C30.9826 94.2263 31.5927 92.6402 32.8879 91.7771C33.6908 91.9251 34.5176 91.7035 35.139 91.174C36.6922 91.2738 38.0135 92.3424 38.4361 93.8403C38.4221 93.8621 38.4089 93.8837 38.3943 93.9051ZM31.5954 88.6153C31.8459 87.6361 32.8427 87.0454 33.8218 87.2959C34.801 87.5463 35.3917 88.5431 35.1412 89.5223C35.0581 89.8471 34.8873 90.1429 34.6475 90.3774C34.6453 90.3779 34.6426 90.3787 34.6407 90.382C34.541 90.4786 34.4312 90.5643 34.3132 90.6374C34.292 90.6502 34.2731 90.6647 34.2504 90.677C34.2093 90.7003 34.165 90.7207 34.1216 90.7409C34.0399 90.7788 33.9555 90.8108 33.8692 90.8364L33.8188 90.8499C33.7312 90.8709 33.6422 90.8854 33.5524 90.8934C33.5061 90.8973 33.4571 90.9019 33.409 90.9024C33.384 90.903 33.3609 90.8997 33.3348 90.8996C33.196 90.8952 33.0581 90.876 32.9235 90.8421L32.9148 90.8416C31.9357 90.5912 31.345 89.5944 31.5954 88.6153ZM38.9853 92.754C38.3473 91.5073 37.1758 90.6194 35.8031 90.342C36.5044 88.9979 35.9832 87.3399 34.6392 86.6387C33.2951 85.9374 31.6371 86.4586 30.9359 87.8026C30.2767 89.0662 30.6941 90.624 31.8967 91.3887C30.8467 92.3153 30.2762 93.67 30.347 95.0686C28.0129 93.1358 27.6876 89.6768 29.6204 87.3428C31.5533 85.0087 35.0122 84.6834 37.3463 86.6162C38.2237 87.3428 38.8532 88.3244 39.1475 89.425C39.4421 90.5244 39.3854 91.6884 38.9853 92.754Z" fill="#A3A3B4"/>
</g>
<rect x="78.75" y="83.75" width="34.5" height="12.5" rx="4.25" stroke="#06C3A6" stroke-width="1.5"/>
<circle cx="85" cy="90" r="2" fill="#06C3A6"/>
<rect x="78.75" y="101.75" width="34.5" height="12.5" rx="4.25" stroke="#06C3A6" stroke-width="1.5"/>
<circle cx="85" cy="108" r="2" fill="#06C3A6"/>
<path d="M50 58C54.5 57.5 63 58 61 64C58.5 71.5 54.5 86.5 67.5 84.5" stroke="#E1E1E6"/>
<path d="M139.5 63.1466C135 62.6466 126.5 63.1466 128.5 69.1466C131 76.6466 135 91.6466 122 89.6466" stroke="#E1E1E6"/>
<path d="M98.4999 76C97.4999 71.6667 97.0999 62.8 103.5 62C111.5 61 118.5 57.5 117 50.5" stroke="#E1E1E6"/>
<g clip-path="url(#clip9_1_498)">
<path d="M194.015 58.0675L182.739 63.8689C181.868 64.3168 181.525 65.3894 181.972 66.2598L185.453 73.0255C185.901 73.896 186.974 74.2398 187.844 73.792L199.12 67.9905C199.991 67.5427 200.335 66.4701 199.887 65.5997L196.406 58.834C195.958 57.9635 194.886 57.6196 194.015 58.0675ZM183.203 64.771L194.479 58.9696C194.852 58.7777 195.312 58.925 195.504 59.2981L195.968 60.2002L183.339 66.6978L182.875 65.7957C182.683 65.4227 182.83 64.963 183.203 64.771ZM198.656 67.0884L187.38 72.8899C187.007 73.0818 186.547 72.9345 186.355 72.5614L183.803 67.5999L196.432 61.1023L198.985 66.0638C199.177 66.4368 199.029 66.8965 198.656 67.0884Z" fill="#A3A3B4"/>
<path d="M188.263 70.7246L187.812 70.9567C187.562 71.0848 187.257 70.9868 187.128 70.7377L186.896 70.2866C186.768 70.0375 186.866 69.7317 187.115 69.6035L187.566 69.3715C187.816 69.2433 188.121 69.3414 188.25 69.5904L188.482 70.0415C188.61 70.2906 188.512 70.5964 188.263 70.7246Z" fill="#A3A3B4"/>
</g>
<defs>
<clipPath id="clip0_1_498">
<rect width="22.2635" height="22.2635" fill="white" transform="translate(18 10.9487) rotate(-29.4576)"/>
</clipPath>
<clipPath id="clip1_1_498">
<rect width="11.482" height="11.482" fill="white" transform="translate(120.972 29) rotate(15)"/>
</clipPath>
<clipPath id="clip2_1_498">
<rect width="30" height="30" fill="white" transform="translate(68 21)"/>
</clipPath>
<clipPath id="clip3_1_498">
<rect width="23" height="23" fill="white" transform="translate(27.4929 40) rotate(24.3769)"/>
</clipPath>
<clipPath id="clip4_1_498">
<rect width="15" height="15" fill="white" transform="translate(146 80)"/>
</clipPath>
<clipPath id="clip5_1_498">
<rect width="24.6018" height="24.6018" fill="white" transform="translate(150.367 39) rotate(15)"/>
</clipPath>
<clipPath id="clip6_1_498">
<rect width="14.4785" height="14.4785" fill="white" transform="translate(0 34.2378) rotate(-45)"/>
</clipPath>
<clipPath id="clip7_1_498">
<rect width="17" height="17" fill="white" transform="translate(142.05 6) rotate(6.92545)"/>
</clipPath>
<clipPath id="clip8_1_498">
<rect width="12.8139" height="12.8139" fill="white" transform="translate(26 86.3165) rotate(-15)"/>
</clipPath>
<clipPath id="clip9_1_498">
<rect width="16.2318" height="16.2318" fill="white" transform="translate(180 62.4259) rotate(-27.2252)"/>
</clipPath>
</defs>
</svg>
