<svg width="23" height="23" viewBox="0 0 23 23" fill="none" xmlns="http://www.w3.org/2000/svg">
<g id="shield (1) 1">
<g id="Group">
<g id="Group_2">
<path id="Vector" d="M21.1543 5.92018C21.1268 5.3151 21.1268 4.73752 21.1268 4.15994C21.1268 3.69238 20.7693 3.33483 20.3017 3.33483C16.8637 3.33483 14.2509 2.34469 12.0781 0.226906C11.748 -0.0756353 11.253 -0.0756353 10.9229 0.226906C8.75014 2.34469 6.13728 3.33483 2.69931 3.33483C2.23175 3.33483 1.8742 3.69238 1.8742 4.15994C1.8742 4.73752 1.8742 5.3151 1.8467 5.92018C1.73668 11.696 1.57166 19.617 11.2255 22.945L11.5005 23L11.7755 22.945C21.4019 19.617 21.2643 11.7235 21.1543 5.92018Z" fill="#06C3A6"/>
</g>
</g>
</g>
</svg>
