<svg width="31" height="25" viewBox="0 0 31 25" fill="none" xmlns="http://www.w3.org/2000/svg">
<g id="Group 86">
<path id="Vector" d="M16.7017 15.0114C16.7017 17.7805 17.6939 20.1362 19.6789 22.0796C21.6639 24.023 24.0404 24.9944 26.8095 24.9944H30.8129C30.8129 23.8938 30.4209 22.9551 29.6367 22.1798C28.8532 21.4038 27.9108 21.0162 26.8095 21.0162H26.7692C25.1176 21.0162 23.7611 20.428 22.6183 19.2524C21.4761 18.0768 20.905 16.6629 20.905 15.0114V4.20323C20.905 3.0522 20.4921 2.0638 19.6663 1.23803C18.8405 0.412256 17.8521 0 16.7017 0V15.0114Z" fill="#1B1A1F"/>
<path id="Vector_2" fill-rule="evenodd" clip-rule="evenodd" d="M18.1276 9.18381V5.27874L10.6201 5.26046C7.88934 5.25415 5.54504 6.2268 3.58777 8.16011C2.77776 8.9594 2.13606 9.82677 1.66077 10.7629C3.36463 9.49836 4.93359 9.63073 6.8606 9.62191L8.41065 9.61497C9.09837 9.31807 9.81257 9.18381 10.6201 9.18381H18.1276ZM18.1276 5.30521V9.18129H23.2588H23.6086C26.4522 8.95562 26.6104 7.31101 26.6104 7.31101V5.94439V5.30458V4.31177C25.7569 5.31089 24.019 5.27937 24.019 5.27937L18.1276 5.27874V5.30521Z" fill="#06C3A6"/>
<path id="Vector_3" fill-rule="evenodd" clip-rule="evenodd" d="M14.261 13.1561H5.12458C5.40382 12.3568 5.8621 11.625 6.49939 10.9599C7.07491 10.3592 7.7122 9.91101 8.41064 9.61475L6.86058 9.62168C4.93358 9.63051 3.36461 9.49813 1.66075 10.7626C0.988161 12.0895 0.65155 13.5539 0.65155 15.155C0.65155 17.8857 1.6305 20.2092 3.58776 22.1255C5.54502 24.0418 7.88933 24.9999 10.62 24.9999H16.4679C16.4679 23.9144 16.0815 22.9891 15.308 22.2238C14.5352 21.4592 13.6054 21.0766 12.5199 21.0766H10.62C9.00759 21.0766 7.63403 20.4929 6.49939 19.3248C5.84382 18.6503 5.37735 17.9021 5.10062 17.0795H10.3131C11.3985 17.0795 12.3283 16.6968 13.1011 15.936C13.8746 15.1751 14.261 14.2504 14.261 13.1561Z" fill="#1B1A1F"/>
</g>
</svg>
