<svg width="30" height="30" viewBox="0 0 30 30" fill="none" xmlns="http://www.w3.org/2000/svg">
<g id="network (1) 1" clip-path="url(#clip0_1_725)">
<g id="Group">
<g id="Group_2">
<path id="Vector" d="M19.7645 16.3692L22.4955 16.9112C22.5914 18.4458 23.9133 19.612 25.4479 19.5161C26.9826 19.4201 28.1488 18.0983 28.0528 16.5636C27.9569 15.029 26.635 13.8628 25.1004 13.9588C24.1055 14.021 23.2198 14.6103 22.7782 15.504L19.9521 14.9432C19.9215 13.8727 19.5072 12.8489 18.785 12.0582L22.5946 6.67661C24.3587 7.44171 26.4089 6.63183 27.174 4.86783C27.939 3.10382 27.1292 1.05347 25.3652 0.288449C23.6012 -0.476575 21.5508 0.333231 20.7858 2.09723C20.2369 3.36297 20.487 4.83338 21.4237 5.84628L17.6593 11.1641C15.8583 10.1534 13.5995 10.507 12.1935 12.0197L7.26052 8.18879C7.91186 6.79237 7.30781 5.13243 5.91146 4.48108C4.51504 3.82973 2.8551 4.43379 2.20375 5.83013C1.5524 7.22655 2.15646 8.8865 3.55281 9.53784C4.45871 9.9604 5.52149 9.86596 6.33876 9.29032L11.3924 13.2149C10.5806 14.988 11.0105 17.0827 12.4551 18.3927L9.42792 22.6739C7.64081 21.6775 5.38434 22.3185 4.38802 24.1057C3.39169 25.8928 4.0327 28.1492 5.81982 29.1456C7.60693 30.1419 9.86339 29.5009 10.8597 27.7138C11.5902 26.4035 11.4585 24.782 10.5259 23.6068L13.6584 19.1764C14.7499 19.6606 15.9898 19.6878 17.1015 19.2521L20.8462 24.7839C19.7011 26.0882 19.8301 28.0738 21.1343 29.2189C22.4386 30.3641 24.4242 30.235 25.5693 28.9308C26.7145 27.6266 26.5854 25.6409 25.2812 24.4958C24.3844 23.7084 23.1191 23.4969 22.0149 23.9499L18.3392 18.52C19.0142 17.9576 19.5097 17.21 19.7645 16.3692ZM25.2728 15.3886C26.0173 15.3886 26.6209 15.9922 26.6209 16.7367C26.6209 17.4812 26.0173 18.0847 25.2728 18.0847C24.5283 18.0847 23.9248 17.4812 23.9248 16.7367C23.9254 15.9924 24.5286 15.3892 25.2728 15.3886ZM23.9705 1.45235C25.0953 1.45242 26.0073 2.36435 26.0072 3.4892C26.0071 4.61406 25.0952 5.52599 23.9703 5.52592C22.8455 5.52585 21.9336 4.61399 21.9336 3.48913C21.935 2.36471 22.8461 1.45357 23.9705 1.45235ZM4.73716 8.36361C3.99302 8.36275 3.38997 7.7597 3.38911 7.01556C3.38911 6.27106 3.99266 5.66751 4.73716 5.66751C5.48166 5.66751 6.08521 6.27106 6.08521 7.01556C6.08521 7.76006 5.48173 8.36361 4.73716 8.36361ZM7.6332 28.1608C6.38533 28.1607 5.37379 27.1492 5.37386 25.9013C5.37394 24.6534 6.38548 23.6419 7.63334 23.642C8.88113 23.6421 9.89267 24.6536 9.89267 25.9014C9.89131 27.1487 8.88049 28.1594 7.6332 28.1608ZM23.2072 25.1503C24.1526 25.1514 24.9187 25.9175 24.9198 26.8629C24.9198 27.8088 24.1531 28.5755 23.2072 28.5755C22.2613 28.5755 21.4946 27.8088 21.4946 26.8629C21.4946 25.917 22.2614 25.1503 23.2072 25.1503ZM15.4707 18.1252C13.7874 18.1233 12.4233 16.7592 12.4214 15.0759C12.4214 13.3919 13.7866 12.0267 15.4707 12.0267C17.1547 12.0267 18.5199 13.3919 18.5199 15.0759C18.5199 16.76 17.1547 18.1252 15.4707 18.1252Z" fill="#A3A3B4"/>
</g>
</g>
</g>
<defs>
<clipPath id="clip0_1_725">
<rect width="30" height="30" fill="white"/>
</clipPath>
</defs>
</svg>
