<svg width="28" height="28" viewBox="0 0 28 28" fill="none" xmlns="http://www.w3.org/2000/svg">
<g id="darts 1" clip-path="url(#clip0_1_760)">
<g id="Group">
<path id="Vector" d="M14.9218 25.5847C9.81133 26.8749 4.5744 23.7492 3.28419 18.6387C1.99398 13.5282 5.11966 8.2913 10.2301 7.00109C15.3406 5.71088 20.5776 8.83655 21.8678 13.947C23.158 19.0575 20.0323 24.2945 14.9218 25.5847ZM10.4647 7.93027C5.81883 9.10318 3.04045 13.7582 4.21337 18.4041C5.38629 23.05 10.0413 25.8284 14.6872 24.6555C19.3331 23.4826 22.1115 18.8275 20.9386 14.1816C19.7657 9.53573 15.1106 6.75735 10.4647 7.93027Z" fill="#A3A3B4"/>
</g>
<g id="Group_2">
<path id="Vector_2" d="M14.1007 22.3325C10.7556 23.177 7.38071 21.1627 6.53621 17.8176C5.69171 14.4726 7.70603 11.0977 11.0511 10.2532C14.3961 9.40866 17.771 11.423 18.6155 14.768C19.46 18.1131 17.4457 21.488 14.1007 22.3325ZM11.2857 11.1823C8.49812 11.8861 6.76164 14.7955 7.46539 17.583C8.16914 20.3706 11.0785 22.1071 13.8661 21.4033C16.6536 20.6996 18.3901 17.7901 17.6864 15.0026C16.9826 12.2151 14.0732 10.4786 11.2857 11.1823Z" fill="#A3A3B4"/>
</g>
<g id="Group_3">
<path id="Vector_3" d="M13.2798 19.0802C11.7002 19.479 10.1873 18.576 9.78847 16.9964C9.38968 15.4168 10.2926 13.9039 11.8723 13.5051C13.4519 13.1063 14.9647 14.0093 15.3635 15.5889C15.7623 17.1685 14.8594 18.6814 13.2798 19.0802ZM12.1068 14.4343C11.0847 14.6923 10.4596 15.7397 10.7176 16.7618C10.9757 17.7839 12.0231 18.409 13.0452 18.151C14.0673 17.893 14.6924 16.8456 14.4344 15.8235C14.1763 14.8014 13.1289 14.1762 12.1068 14.4343Z" fill="#A3A3B4"/>
</g>
<g id="Group_4">
<path id="Vector_4" d="M12.6932 16.7575C12.6003 16.7809 12.4144 16.8278 12.298 16.7584C12.0653 16.6194 11.9949 16.3407 12.1338 16.1079L17.3433 7.37972C17.4822 7.14697 17.761 7.0766 17.9937 7.21551C18.2265 7.35443 18.2968 7.63319 18.1579 7.86594L12.9485 16.5942C12.9719 16.6871 12.7861 16.734 12.6932 16.7575Z" fill="#A3A3B4"/>
</g>
<g id="Group_5">
<path id="Vector_5" d="M20.2256 7.44272L17.9026 8.02917C17.6239 8.09955 17.3911 7.96063 17.3208 7.68188L16.7343 5.35893C16.7108 5.26601 16.7568 5.05672 16.7334 4.9638L19.1644 0.890632C19.3268 0.750797 19.5127 0.703881 19.6985 0.656964C19.9078 0.702966 20.0476 0.865343 20.0945 1.05118L20.5637 2.90954L22.4221 2.44037C22.6079 2.39345 22.8172 2.43946 22.957 2.60183C23.0039 2.78767 23.0509 2.97351 23.0049 3.1828L20.5738 7.25597C20.4809 7.27942 20.3185 7.41926 20.2256 7.44272ZM18.1326 6.9827L19.8052 6.56045L21.5416 3.65105L20.3337 3.95601C20.0549 4.02638 19.8222 3.88746 19.7518 3.60871L19.4469 2.40078L17.7104 5.31018L18.1326 6.9827Z" fill="#A3A3B4"/>
</g>
</g>
<defs>
<clipPath id="clip0_1_760">
<rect width="23" height="23" fill="white" transform="translate(0 5.63013) rotate(-14.169)"/>
</clipPath>
</defs>
</svg>
