<svg width="31" height="31" viewBox="0 0 31 31" fill="none" xmlns="http://www.w3.org/2000/svg">
<g id="idea 1" clip-path="url(#clip0_1_700)">
<g id="Group">
<g id="Group_2">
<path id="Vector" d="M18.4399 7.20013C18.0891 7.07585 17.704 7.25947 17.5797 7.61024C17.4554 7.961 17.639 8.34613 17.9898 8.47041C20.0914 9.21504 21.1956 11.5304 20.4511 13.6317C20.3268 13.9825 20.5104 14.3676 20.8612 14.4919C21.2119 14.6162 21.5971 14.4325 21.7213 14.0818C22.714 11.28 21.242 8.19295 18.4399 7.20013Z" fill="#A3A3B4"/>
</g>
</g>
<g id="Group_3">
<g id="Group_4">
<path id="Vector_2" d="M17.6429 4.25082C14.5609 3.83372 11.4177 5.31379 9.7824 7.98426C8.40156 10.2393 8.17132 12.9128 9.15068 15.3194C9.62945 16.4957 9.66742 17.838 9.25379 19.0054L8.80371 20.2757C8.50426 21.1208 8.80316 22.0349 9.47832 22.554C9.20387 24.126 10.0683 25.7754 11.6594 26.3392C13.2502 26.9029 14.9605 26.166 15.7372 24.7716C16.5885 24.7933 17.3962 24.2714 17.6957 23.4262L18.1458 22.1559C18.5602 20.9862 19.4313 19.9819 20.5985 19.3281C22.3069 18.3712 23.608 16.8277 24.2619 14.9819C25.9657 10.1733 22.8598 4.95705 17.6429 4.25082ZM12.1095 25.069C11.2931 24.7797 10.7763 23.9643 10.7794 23.1156L14.3727 24.3887C13.8409 25.0501 12.926 25.3583 12.1095 25.069ZM16.4254 22.9761C16.3013 23.3263 15.9154 23.5103 15.5652 23.3862L10.4841 21.5859C10.1339 21.4619 9.94991 21.076 10.074 20.7258L10.299 20.0906L16.6504 22.341L16.4254 22.9761ZM19.9399 18.1524C18.696 18.8491 17.7192 19.8747 17.1354 21.0831L10.7143 18.808C11.0219 17.501 10.9143 16.0778 10.399 14.8114C9.58277 12.8057 9.77692 10.5738 10.9317 8.68805C12.2797 6.48661 14.9041 5.24014 17.4622 5.58636C21.8291 6.17727 24.4101 10.5285 22.9916 14.5319C22.4469 16.0694 21.3631 17.3552 19.9399 18.1524Z" fill="#A3A3B4"/>
</g>
</g>
<g id="Group_5">
<g id="Group_6">
<path id="Vector_3" d="M7.70599 9.11591L6.43571 8.66583C6.08494 8.54155 5.69981 8.72517 5.57553 9.07594C5.45125 9.4267 5.63487 9.81183 5.98563 9.93611L7.25591 10.3862C7.60668 10.5105 7.99181 10.3268 8.11609 9.97608C8.24037 9.62532 8.05675 9.24019 7.70599 9.11591Z" fill="#A3A3B4"/>
</g>
</g>
<g id="Group_7">
<g id="Group_8">
<path id="Vector_4" d="M9.09424 6.03348L8.51428 4.81702C8.35416 4.48111 7.95199 4.33861 7.61606 4.49877C7.28013 4.65893 7.13765 5.06106 7.29781 5.39699L7.87778 6.61345C8.0379 6.94936 8.44005 7.0919 8.776 6.9317C9.11192 6.77154 9.2544 6.36941 9.09424 6.03348Z" fill="#A3A3B4"/>
</g>
</g>
<g id="Group_9">
<g id="Group_10">
<path id="Vector_5" d="M6.71205 12.757C6.55189 12.421 6.14972 12.2785 5.81384 12.4387L4.59737 13.0187C4.26145 13.1788 4.11897 13.581 4.27913 13.9169C4.43924 14.2528 4.8414 14.3954 5.17734 14.2351L6.3938 13.6552C6.72973 13.495 6.87221 13.0929 6.71205 12.757Z" fill="#A3A3B4"/>
</g>
</g>
<g id="Group_11">
<g id="Group_12">
<path id="Vector_6" d="M26.8449 15.897L25.5746 15.447C25.2238 15.3227 24.8387 15.5063 24.7144 15.8571C24.5901 16.2078 24.7738 16.593 25.1245 16.7172L26.3948 17.1673C26.7456 17.2916 27.1307 17.108 27.255 16.7572C27.3793 16.4064 27.1956 16.0213 26.8449 15.897Z" fill="#A3A3B4"/>
</g>
</g>
<g id="Group_13">
<g id="Group_14">
<path id="Vector_7" d="M28.5514 11.9164C28.3913 11.5805 27.9891 11.438 27.6532 11.5981L26.4367 12.1781C26.1008 12.3383 25.9583 12.7404 26.1185 13.0763C26.2786 13.4122 26.6807 13.5547 27.0167 13.3946L28.2331 12.8146C28.5691 12.6545 28.7115 12.2523 28.5514 11.9164Z" fill="#A3A3B4"/>
</g>
</g>
<g id="Group_15">
<g id="Group_16">
<path id="Vector_8" d="M25.5327 20.4363L24.9527 19.2199C24.7926 18.8839 24.3904 18.7414 24.0545 18.9016C23.7186 19.0618 23.5761 19.4639 23.7363 19.7998L24.3162 21.0163C24.4764 21.3522 24.8785 21.4947 25.2144 21.3345C25.5504 21.1744 25.6929 20.7722 25.5327 20.4363Z" fill="#A3A3B4"/>
</g>
</g>
</g>
<defs>
<clipPath id="clip0_1_700">
<rect width="23" height="23" fill="white" transform="translate(8.50085 0.81958) rotate(19.5098)"/>
</clipPath>
</defs>
</svg>
