<svg width="31" height="31" viewBox="0 0 31 31" fill="none" xmlns="http://www.w3.org/2000/svg">
<g id="credit-card 1" clip-path="url(#clip0_1_691)">
<g id="Group">
<path id="Vector" d="M19.8815 4.3479L3.88377 12.5785C2.64882 13.2139 2.16037 14.7343 2.79495 15.9678L7.72726 25.5546C8.36185 26.788 9.88288 27.2746 11.1178 26.6393L27.1156 18.4086C28.3505 17.7732 28.839 16.2528 28.2044 15.0194L23.2721 5.43254C22.6375 4.19911 21.1165 3.71253 19.8815 4.3479ZM4.54141 13.8568L20.5392 5.62615C21.0684 5.35386 21.7203 5.5624 21.9923 6.09099L22.6499 7.36924L4.73242 16.5876L4.07477 15.3093C3.80282 14.7807 4.01216 14.1291 4.54141 13.8568ZM26.4579 17.1304L10.4602 25.361C9.93094 25.6333 9.27904 25.4248 9.00709 24.8962L5.39006 17.8658L23.3076 8.64748L26.9246 15.6778C27.1965 16.2064 26.9872 16.8581 26.4579 17.1304Z" fill="#A3A3B4"/>
<path id="Vector_2" d="M11.7134 22.2913L11.0735 22.6205C10.7201 22.8023 10.2864 22.6636 10.1048 22.3106L9.77595 21.6715C9.59436 21.3185 9.73365 20.8849 10.087 20.7031L10.7269 20.3739C11.0803 20.1921 11.5141 20.3308 11.6957 20.6838L12.0245 21.3229C12.2061 21.6759 12.0668 22.1095 11.7134 22.2913Z" fill="#A3A3B4"/>
</g>
</g>
<defs>
<clipPath id="clip0_1_691">
<rect width="23.0283" height="23" fill="white" transform="translate(0 10.5353) rotate(-27.2252)"/>
</clipPath>
</defs>
</svg>
