<svg width="56" height="56" viewBox="0 0 56 56" fill="none" xmlns="http://www.w3.org/2000/svg">
<g id="customer (1) 1">
<path id="Vector" d="M41.5333 28.9333V38.2667H39.6667V28.9333C39.6626 25.3267 36.74 22.4041 33.1333 22.4H31.6531H29.0135H22.3198H19.6802H18.2C14.5933 22.4041 11.6708 25.3267 11.6667 28.9333V41.0667H9.79999V28.9333C9.805 24.2963 13.5629 20.5383 18.2 20.5333H33.1333C37.7704 20.5383 41.5283 24.2963 41.5333 28.9333Z" fill="#1B1A1F"/>
<path id="Vector_2" d="M16.3333 30.8H18.2V39.2H16.3333V30.8Z" fill="#1B1A1F"/>
<path id="Vector_3" d="M33.1333 30.8H35V37.3333H33.1333V30.8Z" fill="#1B1A1F"/>
<path id="Vector_4" d="M52.7332 41.0667H40.8305C38.7733 39.9406 36.4724 39.3349 34.1272 39.3026C34.0565 39.2962 33.9827 39.2935 33.9171 39.2935C31.5013 39.2935 29.1237 39.8991 27.0023 41.0553L20.0666 41.0667C18.0048 41.0667 16.3332 42.7383 16.3332 44.8C16.3323 44.8739 16.3369 44.9477 16.3464 45.0211C16.3601 45.2772 16.4011 45.5306 16.4677 45.778L11.2063 43.3672L11.1215 43.3253L7.9788 41.8897C6.74606 41.3224 5.30869 41.4226 4.16617 42.155C3.02321 42.8878 2.33232 44.152 2.33323 45.5091V45.7147C2.3264 47.2254 3.18226 48.6072 4.53759 49.2744L16.6058 55.3178C17.514 55.7658 18.5125 55.9991 19.5252 56H52.7332C53.2487 56 53.6666 55.5821 53.6666 55.0667V42C53.6666 41.4846 53.2487 41.0667 52.7332 41.0667ZM39.6666 54.1334H19.5252C18.7996 54.132 18.0837 53.9647 17.4329 53.6444L5.37021 47.6C4.65198 47.2468 4.19762 46.5154 4.1999 45.7147V45.5091C4.1999 44.7882 4.56676 44.1169 5.17425 43.7277C5.78128 43.3385 6.54462 43.2856 7.19951 43.5869L10.3162 45.0101L10.4001 45.0511L17.8098 48.4486C17.9324 48.5047 18.0655 48.5334 18.1999 48.5334H28.4666V46.6667H20.0666C19.0694 46.6681 18.2491 45.8815 18.2086 44.8848C18.2072 44.8538 18.2045 44.8224 18.1999 44.7918C18.2045 43.7642 19.0389 42.9334 20.0666 42.9334H27.2252C27.3851 42.9334 27.5423 42.8923 27.6818 42.814L27.9056 42.6877C29.7422 41.6901 31.7975 41.1624 33.8875 41.1515C33.944 41.1629 34.0014 41.1688 34.0593 41.1692C36.0112 41.1879 37.9321 41.6642 39.6666 42.5601V54.1334ZM51.7999 54.1334H41.5332V42.9334H51.7999V54.1334Z" fill="#1B1A1F"/>
<path id="Vector_5" d="M25.6667 18.6667C29.7887 18.6621 33.1288 15.3216 33.1333 11.2V7.46667C33.1333 3.34277 29.7906 0 25.6667 0C21.5428 0 18.2 3.34277 18.2 7.46667V11.2C18.2046 15.3216 21.5451 18.6621 25.6667 18.6667ZM20.0667 7.46667C20.0667 4.37409 22.5741 1.86667 25.6667 1.86667C28.7597 1.86667 31.2667 4.37409 31.2667 7.46667V11.2C31.2667 14.2926 28.7597 16.8 25.6667 16.8C22.5741 16.8 20.0667 14.2926 20.0667 11.2V7.46667Z" fill="#1B1A1F"/>
</g>
</svg>
