<svg width="56" height="56" viewBox="0 0 56 56" fill="none" xmlns="http://www.w3.org/2000/svg">
<g id="medal 1" clip-path="url(#clip0_1_665)">
<g id="Group">
<g id="Group_2">
<g id="Group_3">
<path id="Vector" d="M29.7796 39.1185C29.9449 39.0634 30.1212 38.9972 30.2865 38.9201C30.3416 38.8871 30.3857 38.865 30.4408 38.843C30.573 38.7769 30.7052 38.7107 30.8375 38.6336L29.7796 39.1185ZM29.7796 39.1185C29.7631 39.124 29.7438 39.1322 29.7245 39.1405M29.7796 39.1185L29.7245 39.1405M29.7245 39.1405C29.7052 39.1488 29.6859 39.157 29.6694 39.1625M29.7245 39.1405L29.6694 39.1625M29.6694 39.1625L29.6033 39.1846L29.6694 39.1625ZM38.9165 37.1541L42.9418 52.1903L37.4387 49.1278L37.0149 48.892L36.7663 49.3085L33.537 54.7183L29.8327 40.9391L29.7145 40.4994L29.2657 40.576C28.8372 40.6492 28.4138 40.6901 27.9945 40.6901C27.5752 40.6901 27.1518 40.6492 26.7233 40.576L26.2741 40.4993L26.1561 40.9395L22.4622 54.7281L19.2337 49.3195L18.9851 48.903L18.5613 49.1389L13.0582 52.2013L17.0835 37.1651L17.2094 36.6948L16.7427 36.5564C13.8627 35.7027 11.7562 33.0388 11.7562 29.8843C11.7562 28.23 11.1078 26.6817 9.94584 25.5197C8.62969 24.2036 7.91047 22.4577 7.91047 20.595C7.91047 18.7328 8.62938 16.9873 9.94499 15.6712C11.121 14.5067 11.7562 12.9458 11.7562 11.3058C11.7562 7.47173 14.8822 4.34573 18.7163 4.34573C20.3705 4.34573 21.9189 3.69731 23.0808 2.53537C25.7947 -0.178457 30.2053 -0.178457 32.9192 2.53537C34.0815 3.69768 35.641 4.34573 37.2837 4.34573C41.1178 4.34573 44.2438 7.47173 44.2438 11.3058C44.2438 12.96 44.8922 14.5084 46.0542 15.6704C48.7684 18.3846 48.7674 22.8057 46.0548 25.508L46.0542 25.5087C44.8919 26.671 44.2438 28.2306 44.2438 29.8733C44.2438 33.0278 42.1373 35.6917 39.2573 36.5454L38.7905 36.6838L38.9165 37.1541ZM21.5929 51.6946L22.1996 52.7093L22.5051 51.5672L25.4252 40.6471L25.5468 40.1924L25.1003 40.0436C25.0895 40.04 25.0737 40.0337 25.0526 40.0242C25.0318 40.0147 25.012 40.0048 24.9895 39.9936L24.9793 39.9885L24.9689 39.9839C24.8839 39.9461 24.7869 39.8976 24.7001 39.8494L24.6967 39.8476C24.6502 39.8222 24.6038 39.7936 24.5442 39.7567L24.5401 39.7542C24.4912 39.7239 24.4325 39.6875 24.3691 39.652C24.3229 39.6205 24.278 39.5936 24.2458 39.5743L24.2407 39.5713C24.1963 39.5446 24.1724 39.53 24.1529 39.516L24.1529 39.5159L24.1469 39.5118C24.0147 39.4203 23.8916 39.3281 23.7608 39.23L23.6071 39.1071C23.6062 39.1064 23.6052 39.1056 23.6043 39.1048C23.4256 38.9576 23.2632 38.8151 23.1029 38.6547L22.7493 39.0083L23.1029 38.6547C21.9406 37.4924 20.381 36.8444 18.7383 36.8444C18.626 36.8444 18.5374 36.8441 18.442 36.8354L18.0227 36.7973L17.9137 37.2039L14.63 49.4574L14.3242 50.5984L15.3562 50.0236L19.2853 47.8353L21.5929 51.6946ZM40.6768 50.0236L41.7089 50.5984L41.4031 49.4574L38.1193 37.2039L38.02 36.8333H37.6364C37.5677 36.8333 37.4903 36.8366 37.4514 36.8376C37.4277 36.8382 37.4107 36.8384 37.3974 36.8381C37.384 36.8378 37.3787 36.8372 37.3788 36.8372L37.3479 36.8333H37.3168C35.6625 36.8333 34.1142 37.4818 32.9522 38.6437C32.791 38.8049 32.6277 38.9481 32.448 39.0961L32.4293 39.1115L32.4123 39.1285C32.3982 39.1426 32.3749 39.1601 32.3012 39.2093L32.2896 39.217L32.2785 39.2253C32.2264 39.2644 32.1816 39.299 32.1405 39.3306C32.0616 39.3913 31.9968 39.4413 31.9215 39.4918C31.8842 39.5151 31.8484 39.5365 31.8089 39.5602L31.8075 39.561C31.7681 39.5847 31.7248 39.6107 31.6784 39.6396C31.5687 39.7055 31.468 39.7657 31.3584 39.8255L31.3494 39.8304L31.3405 39.8357C31.2782 39.8731 31.2276 39.8978 31.1564 39.9325C31.1335 39.9436 31.1086 39.9558 31.0804 39.9697C30.9993 40.0009 30.9208 40.0425 30.8843 40.0618C30.8767 40.0658 30.8709 40.0689 30.8673 40.0707L30.5025 40.2531L30.6079 40.6471L33.528 51.5672L33.8334 52.7093L34.4402 51.6946L36.7478 47.8353L40.6768 50.0236ZM38.5168 35.9322L38.5301 35.9302L38.5433 35.9274C41.3474 35.3402 43.4587 32.8598 43.4587 29.8843C43.4587 28.0216 44.1779 26.2758 45.494 24.9596C47.9031 22.5506 47.9056 18.641 45.5042 16.2516L45.1515 16.6061L45.5051 16.2525C44.1889 14.9364 43.4697 13.1905 43.4697 11.3278C43.4697 7.93386 40.712 5.16391 37.3058 5.16391C35.4431 5.16391 33.6972 4.44469 32.3811 3.12854C31.1807 1.92809 29.5968 1.3292 28.0165 1.3292C26.4362 1.3292 24.8524 1.92809 23.652 3.12854C22.3358 4.44469 20.5899 5.16391 18.7273 5.16391C15.3333 5.16391 12.5634 7.92157 12.5634 11.3278C12.5634 13.1905 11.8441 14.9364 10.528 16.2525C9.36568 17.4148 8.71763 18.9744 8.71763 20.6171C8.71763 22.2713 9.36605 23.8197 10.528 24.9817C11.8441 26.2978 12.5634 28.0437 12.5634 29.9063C12.5634 32.8819 14.6747 35.3623 17.4788 35.9494L17.4919 35.9522L17.5052 35.9542L17.7917 35.9983L17.797 35.9991C17.8176 36.002 17.8385 36.0051 17.8597 36.0081C17.9879 36.0267 18.1264 36.0467 18.256 36.0575L18.2592 36.0578L18.2658 36.0583C18.4053 36.069 18.5648 36.0813 18.7383 36.0813C19.4377 36.0813 20.116 36.184 20.7635 36.3791C21.8424 36.708 22.8287 37.2934 23.652 38.1166L23.6585 38.1232L23.6653 38.1295L23.671 38.1348C23.8166 38.27 23.9764 38.4184 24.1493 38.558C24.1909 38.5967 24.2306 38.6264 24.2582 38.6464C24.2864 38.6667 24.296 38.6732 24.3026 38.6777C24.3082 38.6815 24.3117 38.6838 24.3226 38.692L24.3226 38.6921L24.3285 38.6964L24.3361 38.7019C24.4519 38.7862 24.5895 38.8862 24.7425 38.9757C24.7434 38.9762 24.7444 38.9768 24.7453 38.9773L24.9053 39.0734L24.9053 39.0734L24.9106 39.0765L24.9183 39.081C25.0442 39.1545 25.1917 39.2405 25.3543 39.316C25.3843 39.3308 25.4147 39.3443 25.4354 39.3535L25.4388 39.355C25.4661 39.3671 25.4799 39.3734 25.4899 39.3783L25.5134 39.3901L25.5379 39.3993C25.5793 39.4148 25.6281 39.4341 25.6812 39.4551C25.8052 39.5041 25.9529 39.5624 26.0862 39.6045C26.0881 39.6052 26.092 39.6067 26.1008 39.6102C26.114 39.6155 26.1403 39.6261 26.1724 39.6369L26.1907 39.6429L26.2093 39.6476L26.2893 39.6676C27.4128 39.9886 28.6182 39.9878 29.7413 39.6651L29.7515 39.6622L29.7614 39.6589L29.8276 39.6369C29.8504 39.6293 29.8705 39.6213 29.8846 39.6156C29.8981 39.6101 29.9114 39.6044 29.9202 39.6006L29.9215 39.6001L29.9417 39.5915C29.9419 39.5914 29.942 39.5914 29.9422 39.5913C30.1177 39.5327 30.3114 39.4603 30.4979 39.3732L30.5215 39.3622L30.5438 39.3489C30.5779 39.3284 30.5981 39.3186 30.6265 39.3072L30.6458 39.2995L30.6644 39.2902L30.6699 39.2874C30.7951 39.2248 30.935 39.1549 31.077 39.0727C31.1452 39.0373 31.2202 38.9906 31.2597 38.966C31.2696 38.9598 31.2772 38.955 31.282 38.9522L31.2821 38.9523L31.2932 38.9452L31.3021 38.9396C31.4176 38.8661 31.5582 38.7766 31.6898 38.6714L31.3774 38.281L31.6898 38.6714C31.7029 38.6609 31.7175 38.6505 31.7468 38.63L31.7502 38.6276C31.7761 38.6095 31.8149 38.5824 31.855 38.5502C32.0291 38.411 32.1985 38.2662 32.3701 38.0946L32.3723 38.0924C33.1821 37.2723 34.1778 36.6865 35.2586 36.3571C35.9061 36.162 36.5843 36.0592 37.2837 36.0592C37.4487 36.0592 37.6208 36.0466 37.7629 36.0357C37.896 36.0255 38.0246 36.0065 38.1429 35.9891C38.1708 35.9849 38.1982 35.9809 38.225 35.9771L38.2303 35.9763L38.5168 35.9322Z" fill="#1B1A1F" stroke="black"/>
<path id="Vector_2" d="M15.073 20.606C15.073 13.4772 20.8767 7.67346 28.0055 7.67346C35.1349 7.67346 40.938 13.4667 40.938 20.5949C40.938 27.7238 35.1343 33.5275 28.0055 33.5275C20.8762 33.5275 15.073 27.7342 15.073 20.606ZM15.8691 20.5949C15.8691 27.2843 21.3161 32.7313 28.0055 32.7313C34.6949 32.7313 40.1419 27.2843 40.1419 20.5949C40.1419 13.9056 34.6949 8.45859 28.0055 8.45859C21.3161 8.45859 15.8691 13.9056 15.8691 20.5949Z" fill="#1B1A1F" stroke="black"/>
</g>
</g>
</g>
</g>
<defs>
<clipPath id="clip0_1_665">
<rect width="56" height="56" fill="white"/>
</clipPath>
</defs>
</svg>
