<svg width="56" height="56" viewBox="0 0 56 56" fill="none" xmlns="http://www.w3.org/2000/svg">
<g id="internet 1">
<path id="Vector" d="M27.9955 54.4865C20.9708 54.5078 14.2254 51.7378 9.24308 46.7857C4.26078 41.8337 1.44975 35.1052 1.42838 28.0806C1.407 21.0559 4.17703 14.3105 9.1291 9.32819C14.0812 4.3459 20.8096 1.53486 27.8343 1.51349H28.0053C35.0299 1.49221 41.7753 4.26234 46.7576 9.21448C51.7398 14.1666 54.5507 20.8951 54.572 27.9198C54.5933 34.9444 51.8231 41.6898 46.871 46.672C41.9189 51.6543 35.1904 54.4652 28.1657 54.4865H27.9955ZM27.8441 3.027C21.2158 3.04835 14.8669 5.69915 10.1913 10.3974C5.51576 15.0956 2.89568 21.4573 2.90635 28.0855C2.91703 34.7138 5.5576 41.067 10.2483 45.7502C14.939 50.4333 21.2964 53.0636 27.9247 53.0636C34.553 53.0636 40.9104 50.4333 45.6011 45.7502C50.2918 41.067 52.9324 34.7138 52.9431 28.0855C52.9537 21.4573 50.3336 15.0956 45.6581 10.3974C40.9825 5.69915 34.6336 3.04835 28.0053 3.027H27.8441Z" fill="#1B1A1F"/>
<path id="Vector_2" d="M27.9955 54.4865C20.9708 54.5078 14.2254 51.7378 9.24308 46.7857C4.26078 41.8337 1.44975 35.1052 1.42838 28.0806C1.407 21.0559 4.17703 14.3105 9.1291 9.32819C14.0812 4.3459 20.8096 1.53486 27.8343 1.51349H28.0053C35.0299 1.49221 41.7753 4.26234 46.7576 9.21448C51.7398 14.1666 54.5507 20.8951 54.572 27.9198C54.5933 34.9444 51.8231 41.6898 46.871 46.672C41.9189 51.6543 35.1904 54.4652 28.1657 54.4865H27.9955ZM27.8441 3.027C21.2158 3.04835 14.8669 5.69915 10.1913 10.3974C5.51576 15.0956 2.89568 21.4573 2.90635 28.0855C2.91703 34.7138 5.5576 41.067 10.2483 45.7502C14.939 50.4333 21.2964 53.0636 27.9247 53.0636C34.553 53.0636 40.9104 50.4333 45.6011 45.7502C50.2918 41.067 52.9324 34.7138 52.9431 28.0855C52.9537 21.4573 50.3336 15.0956 45.6581 10.3974C40.9825 5.69915 34.6336 3.04835 28.0053 3.027H27.8441Z" fill="#1B1A1F"/>
<path id="Vector_3" d="M28.1241 54.4864C20.9296 54.4864 15.2282 42.908 15.1351 28.0809C15.0428 13.2288 20.6201 1.55959 27.8343 1.51343H27.8759C35.0704 1.51343 40.7718 13.0918 40.8649 27.9189C40.9572 42.7711 35.3799 54.4402 28.1657 54.4864H28.1241ZM27.8434 3.02694C21.6909 3.06554 16.5677 14.5349 16.6486 28.0711C16.7334 41.5845 21.9868 52.9729 28.1256 52.9729H28.1566C34.3091 52.9343 39.4323 41.4649 39.3514 27.9288C39.2666 14.4154 34.0132 3.02694 27.8744 3.02694H27.8434Z" fill="#1B1A1F"/>
<path id="Vector_4" d="M28.1612 54.4864C27.9613 54.4864 27.7695 54.4073 27.6277 54.2664C27.4859 54.1254 27.4057 53.9341 27.4045 53.7342L27.0821 2.27473C27.0815 2.17535 27.1005 2.07682 27.1379 1.98478C27.1754 1.89274 27.2307 1.80898 27.3005 1.73828C27.3704 1.66759 27.4535 1.61135 27.545 1.57277C27.6366 1.53419 27.7349 1.51402 27.8343 1.51343H27.8388C28.0388 1.51342 28.2306 1.59253 28.3724 1.73347C28.5141 1.87441 28.5944 2.06573 28.5956 2.26564L28.918 53.7251C28.9186 53.8245 28.8996 53.923 28.8621 54.0151C28.8246 54.1071 28.7694 54.1908 28.6995 54.2615C28.6297 54.3322 28.5466 54.3885 28.455 54.4271C28.3634 54.4656 28.2651 54.4858 28.1658 54.4864H28.1612Z" fill="#1B1A1F"/>
<path id="Vector_5" d="M2.27029 28.918C2.06959 28.9186 1.87686 28.8394 1.73452 28.6979C1.59217 28.5564 1.51187 28.3642 1.51126 28.1635C1.51066 27.9628 1.58981 27.77 1.73131 27.6277C1.8728 27.4853 2.06505 27.405 2.26575 27.4044L53.7252 27.0813H53.7297C53.9305 27.0807 54.1232 27.1599 54.2655 27.3013C54.4079 27.4428 54.4882 27.6351 54.4888 27.8358C54.4894 28.0365 54.4102 28.2292 54.2687 28.3716C54.1272 28.5139 53.935 28.5942 53.7343 28.5948L2.27483 28.918H2.27029Z" fill="#1B1A1F"/>
<path id="Vector_6" d="M6.08282 15.2721C5.88212 15.2727 5.68939 15.1936 5.54705 15.0521C5.4047 14.9106 5.3244 14.7184 5.32379 14.5177C5.32319 14.317 5.40234 14.1242 5.54384 13.9819C5.68533 13.8395 5.87758 13.7592 6.07828 13.7586L49.7431 13.4847H49.7477C49.9484 13.4841 50.1411 13.5632 50.2835 13.7047C50.4258 13.8462 50.5061 14.0385 50.5067 14.2392C50.5073 14.4399 50.4282 14.6326 50.2867 14.7749C50.1452 14.9173 49.9529 14.9976 49.7522 14.9982L6.08736 15.2721H6.08282Z" fill="#1B1A1F"/>
<path id="Vector_7" d="M6.25378 42.5154C6.05308 42.516 5.86035 42.4368 5.71801 42.2953C5.57566 42.1538 5.49536 41.9616 5.49475 41.7609C5.49415 41.5602 5.5733 41.3674 5.7148 41.2251C5.85629 41.0828 6.04854 41.0025 6.24924 41.0019L49.9141 40.7279H49.9186C50.1194 40.7273 50.3121 40.8065 50.4544 40.948C50.5968 41.0894 50.6771 41.2817 50.6777 41.4824C50.6783 41.6831 50.5991 41.8758 50.4576 42.0182C50.3161 42.1605 50.1239 42.2408 49.9232 42.2414L6.25832 42.5154H6.25378Z" fill="#1B1A1F"/>
</g>
</svg>
