<svg width="140" height="121" viewBox="0 0 140 121" fill="none" xmlns="http://www.w3.org/2000/svg">
<g id="Group 28" opacity="0.5">
<circle id="Ellipse 9" cx="3.5" cy="117.5" r="3.5" fill="white"/>
<circle id="Ellipse 17" cx="3.5" cy="98.5" r="3.5" fill="white"/>
<circle id="Ellipse 25" cx="3.5" cy="79.5" r="3.5" fill="white"/>
<circle id="Ellipse 33" cx="3.5" cy="60.5" r="3.5" fill="white"/>
<circle id="Ellipse 41" cx="3.5" cy="41.5" r="3.5" fill="white"/>
<circle id="Ellipse 49" cx="3.5" cy="22.5" r="3.5" fill="white"/>
<circle id="Ellipse 57" cx="3.5" cy="3.5" r="3.5" fill="white"/>
<circle id="Ellipse 10" cx="22.5" cy="117.5" r="3.5" fill="white"/>
<circle id="Ellipse 18" cx="22.5" cy="98.5" r="3.5" fill="white"/>
<circle id="Ellipse 26" cx="22.5" cy="79.5" r="3.5" fill="white"/>
<circle id="Ellipse 34" cx="22.5" cy="60.5" r="3.5" fill="white"/>
<circle id="Ellipse 42" cx="22.5" cy="41.5" r="3.5" fill="white"/>
<circle id="Ellipse 50" cx="22.5" cy="22.5" r="3.5" fill="white"/>
<circle id="Ellipse 58" cx="22.5" cy="3.5" r="3.5" fill="white"/>
<circle id="Ellipse 11" cx="41.5" cy="117.5" r="3.5" fill="white"/>
<circle id="Ellipse 19" cx="41.5" cy="98.5" r="3.5" fill="white"/>
<circle id="Ellipse 27" cx="41.5" cy="79.5" r="3.5" fill="white"/>
<circle id="Ellipse 35" cx="41.5" cy="60.5" r="3.5" fill="white"/>
<circle id="Ellipse 43" cx="41.5" cy="41.5" r="3.5" fill="white"/>
<circle id="Ellipse 51" cx="41.5" cy="22.5" r="3.5" fill="white"/>
<circle id="Ellipse 59" cx="41.5" cy="3.5" r="3.5" fill="white"/>
<circle id="Ellipse 12" cx="60.5" cy="117.5" r="3.5" fill="white"/>
<circle id="Ellipse 20" cx="60.5" cy="98.5" r="3.5" fill="white"/>
<circle id="Ellipse 28" cx="60.5" cy="79.5" r="3.5" fill="white"/>
<circle id="Ellipse 36" cx="60.5" cy="60.5" r="3.5" fill="white"/>
<circle id="Ellipse 44" cx="60.5" cy="41.5" r="3.5" fill="white"/>
<circle id="Ellipse 52" cx="60.5" cy="22.5" r="3.5" fill="white"/>
<circle id="Ellipse 60" cx="60.5" cy="3.5" r="3.5" fill="white"/>
<circle id="Ellipse 13" cx="79.5" cy="117.5" r="3.5" fill="white"/>
<circle id="Ellipse 21" cx="79.5" cy="98.5" r="3.5" fill="white"/>
<circle id="Ellipse 29" cx="79.5" cy="79.5" r="3.5" fill="white"/>
<circle id="Ellipse 37" cx="79.5" cy="60.5" r="3.5" fill="white"/>
<circle id="Ellipse 45" cx="79.5" cy="41.5" r="3.5" fill="white"/>
<circle id="Ellipse 53" cx="79.5" cy="22.5" r="3.5" fill="white"/>
<circle id="Ellipse 61" cx="79.5" cy="3.5" r="3.5" fill="white"/>
<circle id="Ellipse 14" cx="98.5" cy="117.5" r="3.5" fill="white"/>
<circle id="Ellipse 22" cx="98.5" cy="98.5" r="3.5" fill="white"/>
<circle id="Ellipse 30" cx="98.5" cy="79.5" r="3.5" fill="white"/>
<circle id="Ellipse 38" cx="98.5" cy="60.5" r="3.5" fill="white"/>
<circle id="Ellipse 46" cx="98.5" cy="41.5" r="3.5" fill="white"/>
<circle id="Ellipse 54" cx="98.5" cy="22.5" r="3.5" fill="white"/>
<circle id="Ellipse 62" cx="98.5" cy="3.5" r="3.5" fill="white"/>
<circle id="Ellipse 15" cx="117.5" cy="117.5" r="3.5" fill="white"/>
<circle id="Ellipse 23" cx="117.5" cy="98.5" r="3.5" fill="white"/>
<circle id="Ellipse 31" cx="117.5" cy="79.5" r="3.5" fill="white"/>
<circle id="Ellipse 39" cx="117.5" cy="60.5" r="3.5" fill="white"/>
<circle id="Ellipse 47" cx="117.5" cy="41.5" r="3.5" fill="white"/>
<circle id="Ellipse 55" cx="117.5" cy="22.5" r="3.5" fill="white"/>
<circle id="Ellipse 63" cx="117.5" cy="3.5" r="3.5" fill="white"/>
<circle id="Ellipse 16" cx="136.5" cy="117.5" r="3.5" fill="white"/>
<circle id="Ellipse 24" cx="136.5" cy="98.5" r="3.5" fill="white"/>
<circle id="Ellipse 32" cx="136.5" cy="79.5" r="3.5" fill="white"/>
<circle id="Ellipse 40" cx="136.5" cy="60.5" r="3.5" fill="white"/>
<circle id="Ellipse 48" cx="136.5" cy="41.5" r="3.5" fill="white"/>
<circle id="Ellipse 56" cx="136.5" cy="22.5" r="3.5" fill="white"/>
<circle id="Ellipse 64" cx="136.5" cy="3.5" r="3.5" fill="white"/>
</g>
</svg>
