<svg width="252" height="218" viewBox="0 0 252 218" fill="none" xmlns="http://www.w3.org/2000/svg">
<g opacity="0.3">
<circle cx="6.95" cy="210.714" r="6.95" fill="white"/>
<circle cx="6.95" cy="176.814" r="6.95" fill="white"/>
<circle cx="6.95" cy="142.914" r="6.95" fill="white"/>
<circle cx="6.95" cy="109.014" r="6.95" fill="white"/>
<circle cx="6.95" cy="75.1143" r="6.95" fill="white"/>
<circle cx="6.95" cy="41.2143" r="6.95" fill="white"/>
<circle cx="6.95" cy="7.31426" r="6.95" fill="white"/>
<circle cx="40.85" cy="210.714" r="6.95" fill="white"/>
<circle cx="40.85" cy="176.814" r="6.95" fill="white"/>
<circle cx="40.85" cy="142.914" r="6.95" fill="white"/>
<circle cx="40.85" cy="109.014" r="6.95" fill="white"/>
<circle cx="40.85" cy="75.1143" r="6.95" fill="white"/>
<circle cx="40.85" cy="41.2143" r="6.95" fill="white"/>
<circle cx="40.85" cy="7.31426" r="6.95" fill="white"/>
<circle cx="74.75" cy="210.714" r="6.95" fill="white"/>
<circle cx="74.75" cy="176.814" r="6.95" fill="white"/>
<circle cx="74.75" cy="142.914" r="6.95" fill="white"/>
<circle cx="74.75" cy="109.014" r="6.95" fill="white"/>
<circle cx="74.75" cy="75.1143" r="6.95" fill="white"/>
<circle cx="74.75" cy="41.2143" r="6.95" fill="white"/>
<circle cx="74.75" cy="7.31426" r="6.95" fill="white"/>
<circle cx="108.65" cy="210.714" r="6.95" fill="white"/>
<circle cx="108.65" cy="176.814" r="6.95" fill="white"/>
<circle cx="108.65" cy="142.914" r="6.95" fill="white"/>
<circle cx="108.65" cy="109.014" r="6.95" fill="white"/>
<circle cx="108.65" cy="75.1143" r="6.95" fill="white"/>
<circle cx="108.65" cy="41.2143" r="6.95" fill="white"/>
<circle cx="108.65" cy="7.31426" r="6.95" fill="white"/>
<circle cx="142.55" cy="210.714" r="6.95" fill="white"/>
<circle cx="142.55" cy="176.814" r="6.95" fill="white"/>
<circle cx="142.55" cy="142.914" r="6.95" fill="white"/>
<circle cx="142.55" cy="109.014" r="6.95" fill="white"/>
<circle cx="142.55" cy="75.1143" r="6.95" fill="white"/>
<circle cx="142.55" cy="41.2143" r="6.95" fill="white"/>
<circle cx="142.55" cy="7.31426" r="6.95" fill="white"/>
<circle cx="176.45" cy="210.714" r="6.95" fill="white"/>
<circle cx="176.45" cy="176.814" r="6.95" fill="white"/>
<circle cx="176.45" cy="142.914" r="6.95" fill="white"/>
<circle cx="176.45" cy="109.014" r="6.95" fill="white"/>
<circle cx="176.45" cy="75.1143" r="6.95" fill="white"/>
<circle cx="176.45" cy="41.2143" r="6.95" fill="white"/>
<circle cx="176.45" cy="7.31426" r="6.95" fill="white"/>
<circle cx="210.35" cy="210.714" r="6.95" fill="white"/>
<circle cx="210.35" cy="176.814" r="6.95" fill="white"/>
<circle cx="210.35" cy="142.914" r="6.95" fill="white"/>
<circle cx="210.35" cy="109.014" r="6.95" fill="white"/>
<circle cx="210.35" cy="75.1143" r="6.95" fill="white"/>
<circle cx="210.35" cy="41.2143" r="6.95" fill="white"/>
<circle cx="210.35" cy="7.31426" r="6.95" fill="white"/>
<circle cx="244.25" cy="210.714" r="6.95" fill="white"/>
<circle cx="244.25" cy="176.814" r="6.95" fill="white"/>
<circle cx="244.25" cy="142.914" r="6.95" fill="white"/>
<circle cx="244.25" cy="109.014" r="6.95" fill="white"/>
<circle cx="244.25" cy="75.1143" r="6.95" fill="white"/>
<circle cx="244.25" cy="41.2143" r="6.95" fill="white"/>
<circle cx="244.25" cy="7.31426" r="6.95" fill="white"/>
</g>
</svg>
