<svg width="70" height="60" viewBox="0 0 70 60" fill="none" xmlns="http://www.w3.org/2000/svg">
<g id="Group 86">
<path id="Vector" d="M37.25 35.8285C37.25 42.2553 39.5527 47.7224 44.1596 52.2328C48.7665 56.7431 54.2819 58.9975 60.7087 58.9975H70C70 56.4432 69.0901 54.2648 67.2701 52.4654C65.4517 50.6645 63.2645 49.7647 60.7087 49.7647H60.6151C56.7821 49.7647 53.6338 48.3998 50.9814 45.6713C48.3305 42.9429 47.0051 39.6615 47.0051 35.8285V10.7444C47.0051 8.07307 46.0469 5.77914 44.1304 3.86265C42.2139 1.94616 39.9199 0.98938 37.25 0.98938V35.8285Z" fill="#1B1A1F"/>
<path id="Vector_2" fill-rule="evenodd" clip-rule="evenodd" d="M40.5595 22.3035V13.2404L23.1356 13.198C16.798 13.1834 11.3572 15.4407 6.8147 19.9276C4.93479 21.7827 3.44548 23.7957 2.34241 25.9682C6.29681 23.0335 9.93814 23.3407 14.4104 23.3203L18.0079 23.3042C19.604 22.6151 21.2615 22.3035 23.1356 22.3035H40.5595ZM40.5595 13.3018V22.2976H52.4681H53.28C59.8795 21.7739 60.2467 17.957 60.2467 17.957V14.7853V13.3004V10.9962C58.2658 13.315 54.2324 13.2419 54.2324 13.2419L40.5595 13.2404V13.3018Z" fill="white"/>
<path id="Vector_3" fill-rule="evenodd" clip-rule="evenodd" d="M31.5855 31.5229H10.3812C11.0293 29.6679 12.0929 27.9694 13.5719 26.4259C14.9076 25.0317 16.3867 23.9915 18.0077 23.304L14.4102 23.3201C9.93794 23.3405 6.29661 23.0333 2.34221 25.968C0.781222 29.0476 0 32.446 0 36.162C0 42.4996 2.27199 47.8921 6.8145 52.3395C11.357 56.7869 16.7978 59.0106 23.1354 59.0106H36.7073C36.7073 56.4914 35.8105 54.3437 34.0155 52.5677C32.2219 50.7931 30.064 49.9051 27.5447 49.9051H23.1354C19.3931 49.9051 16.2053 48.5504 13.5719 45.8395C12.0505 44.2741 10.9679 42.5376 10.3256 40.6284H22.4229C24.9421 40.6284 27.1 39.7404 28.8936 37.9746C30.6887 36.2088 31.5855 34.0626 31.5855 31.5229Z" fill="#1B1A1F"/>
</g>
</svg>
